<mxfile host="app.diagrams.net" agent="Mozilla/5.0 (Windows NT 10.0; Win64; x64) AppleWebKit/537.36 (KHTML, like Gecko) Chrome/135.0.0.0 Safari/537.36" version="26.2.15" pages="9">
  <diagram name="Template" id="ElS_C-N2uvcyRtLL_r12">
    <mxGraphModel dx="1869" dy="933" grid="1" gridSize="10" guides="1" tooltips="1" connect="1" arrows="1" fold="1" page="1" pageScale="1" pageWidth="827" pageHeight="1169" math="0" shadow="0">
      <root>
        <mxCell id="duvsb-Wx93p4ABrGItXd-0" />
        <mxCell id="duvsb-Wx93p4ABrGItXd-1" parent="duvsb-Wx93p4ABrGItXd-0" />
        <mxCell id="duvsb-Wx93p4ABrGItXd-2" value="" style="strokeWidth=1;shadow=0;dashed=0;align=center;html=1;shape=mxgraph.mockup.containers.browserWindow;rSize=0;strokeColor=#666666;strokeColor2=#008cff;strokeColor3=#c4c4c4;mainText=,;recursiveResize=0;movable=0;resizable=0;rotatable=0;deletable=0;editable=0;locked=1;connectable=0;" vertex="1" parent="duvsb-Wx93p4ABrGItXd-1">
          <mxGeometry x="30" y="70" width="768" height="576" as="geometry" />
        </mxCell>
        <mxCell id="duvsb-Wx93p4ABrGItXd-3" value="" style="strokeWidth=1;shadow=0;dashed=0;align=center;html=1;shape=mxgraph.mockup.containers.anchor;fontSize=17;fontColor=#666666;align=left;whiteSpace=wrap;" vertex="1" parent="duvsb-Wx93p4ABrGItXd-2">
          <mxGeometry x="60" y="12" width="110" height="26" as="geometry" />
        </mxCell>
        <mxCell id="duvsb-Wx93p4ABrGItXd-4" value="" style="strokeWidth=1;shadow=0;dashed=0;align=center;html=1;shape=mxgraph.mockup.containers.anchor;rSize=0;fontSize=17;fontColor=#666666;align=left;" vertex="1" parent="duvsb-Wx93p4ABrGItXd-2">
          <mxGeometry x="130" y="60" width="250" height="26" as="geometry" />
        </mxCell>
        <mxCell id="duvsb-Wx93p4ABrGItXd-5" value="&lt;font style=&quot;font-size: 29px;&quot;&gt;Desktop (1024 px&amp;nbsp;× 768 px)&lt;/font&gt;" style="text;html=1;align=center;verticalAlign=middle;whiteSpace=wrap;rounded=0;movable=0;resizable=0;rotatable=0;deletable=0;editable=0;locked=1;connectable=0;" vertex="1" parent="duvsb-Wx93p4ABrGItXd-1">
          <mxGeometry x="219" y="20" width="390" height="30" as="geometry" />
        </mxCell>
      </root>
    </mxGraphModel>
  </diagram>
  <diagram name="1 - Navigation Bar" id="fzxErWgEziqZRgNCB0e2">
    <mxGraphModel dx="1209" dy="604" grid="1" gridSize="10" guides="1" tooltips="1" connect="1" arrows="1" fold="1" page="1" pageScale="1" pageWidth="827" pageHeight="1169" math="0" shadow="0">
      <root>
        <mxCell id="Pd5JW28RCC70FqYIQPSd-0" />
        <mxCell id="Pd5JW28RCC70FqYIQPSd-1" parent="Pd5JW28RCC70FqYIQPSd-0" />
        <mxCell id="Pd5JW28RCC70FqYIQPSd-2" value="" style="strokeWidth=1;shadow=0;dashed=0;align=center;html=1;shape=mxgraph.mockup.containers.browserWindow;rSize=0;strokeColor=light-dark(#33dbc6, #a0bcd2);strokeColor2=#008cff;strokeColor3=#c4c4c4;mainText=,;recursiveResize=0;movable=0;resizable=0;rotatable=0;deletable=0;editable=0;locked=1;connectable=0;fillColor=light-dark(#d9e1e8, #39454e);labelBorderColor=none;textShadow=0;gradientColor=none;fontColor=default;labelBackgroundColor=none;" vertex="1" parent="Pd5JW28RCC70FqYIQPSd-1">
          <mxGeometry x="30" y="147" width="770" height="576" as="geometry" />
        </mxCell>
        <mxCell id="Pd5JW28RCC70FqYIQPSd-3" value="" style="strokeWidth=1;shadow=0;dashed=0;align=center;html=1;shape=mxgraph.mockup.containers.anchor;fontSize=17;fontColor=#666666;align=left;whiteSpace=wrap;" vertex="1" parent="Pd5JW28RCC70FqYIQPSd-2">
          <mxGeometry x="60" y="12" width="110" height="26" as="geometry" />
        </mxCell>
        <mxCell id="Pd5JW28RCC70FqYIQPSd-4" value="" style="strokeWidth=1;shadow=0;dashed=0;align=center;html=1;shape=mxgraph.mockup.containers.anchor;rSize=0;fontSize=17;fontColor=#666666;align=left;" vertex="1" parent="Pd5JW28RCC70FqYIQPSd-2">
          <mxGeometry x="130" y="60" width="250" height="26" as="geometry" />
        </mxCell>
        <mxCell id="Pd5JW28RCC70FqYIQPSd-6" value="" style="rounded=0;whiteSpace=wrap;html=1;labelBackgroundColor=light-dark(#ABF6F5,#0E3A2F);fillColor=#C0FAFD;textShadow=1;" vertex="1" parent="Pd5JW28RCC70FqYIQPSd-2">
          <mxGeometry x="-1" y="536" width="770" height="40" as="geometry" />
        </mxCell>
        <mxCell id="Pd5JW28RCC70FqYIQPSd-7" value="All Rights Reserved" style="text;html=1;align=center;verticalAlign=middle;whiteSpace=wrap;rounded=0;" vertex="1" parent="Pd5JW28RCC70FqYIQPSd-2">
          <mxGeometry x="249.5" y="541" width="270" height="30" as="geometry" />
        </mxCell>
        <mxCell id="2F0CFqIz7ULv_RRBQEB2-3" value="" style="rounded=0;whiteSpace=wrap;html=1;gradientColor=#2FE9E6;" vertex="1" parent="Pd5JW28RCC70FqYIQPSd-2">
          <mxGeometry x="-2" y="113" width="770" height="427" as="geometry" />
        </mxCell>
        <mxCell id="2F0CFqIz7ULv_RRBQEB2-2" value="" style="rounded=1;whiteSpace=wrap;html=1;arcSize=50;" vertex="1" parent="Pd5JW28RCC70FqYIQPSd-2">
          <mxGeometry x="70" y="173" width="630" height="60" as="geometry" />
        </mxCell>
        <mxCell id="Pd5JW28RCC70FqYIQPSd-5" value="MANA&amp;nbsp; Advertisement" style="text;html=1;align=center;verticalAlign=middle;rounded=0;fontSize=19;fontColor=light-dark(#000000,#EDEDED);labelBorderColor=none;" vertex="1" parent="Pd5JW28RCC70FqYIQPSd-2">
          <mxGeometry x="277.5" y="133" width="211" height="30" as="geometry" />
        </mxCell>
        <mxCell id="qrFJkLmeyk54EGywKiVr-0" value="Search" style="text;html=1;align=center;verticalAlign=middle;whiteSpace=wrap;rounded=0;fontSize=17;" vertex="1" parent="Pd5JW28RCC70FqYIQPSd-2">
          <mxGeometry x="90" y="188" width="60" height="30" as="geometry" />
        </mxCell>
        <mxCell id="qrFJkLmeyk54EGywKiVr-1" value="" style="sketch=0;outlineConnect=0;fontColor=#232F3E;gradientColor=none;fillColor=#232F3D;strokeColor=none;dashed=0;verticalLabelPosition=bottom;verticalAlign=top;align=center;html=1;fontSize=12;fontStyle=0;aspect=fixed;pointerEvents=1;shape=mxgraph.aws4.magnifying_glass_2;" vertex="1" parent="Pd5JW28RCC70FqYIQPSd-2">
          <mxGeometry x="640" y="184.5" width="37" height="37" as="geometry" />
        </mxCell>
        <mxCell id="qrFJkLmeyk54EGywKiVr-2" value="&lt;u&gt;Home Page&lt;/u&gt;" style="text;html=1;align=center;verticalAlign=middle;whiteSpace=wrap;rounded=0;" vertex="1" parent="Pd5JW28RCC70FqYIQPSd-2">
          <mxGeometry x="249.5" y="253" width="100" height="30" as="geometry" />
        </mxCell>
        <mxCell id="qrFJkLmeyk54EGywKiVr-3" value="&lt;u&gt;User Account&lt;/u&gt;" style="text;html=1;align=center;verticalAlign=middle;whiteSpace=wrap;rounded=0;" vertex="1" parent="Pd5JW28RCC70FqYIQPSd-2">
          <mxGeometry x="450" y="253" width="100" height="30" as="geometry" />
        </mxCell>
        <mxCell id="Pd5JW28RCC70FqYIQPSd-31" value="&lt;font style=&quot;font-size: 29px;&quot;&gt;Desktop (1024 px&amp;nbsp;× 768 px)&lt;/font&gt;" style="text;html=1;align=center;verticalAlign=middle;whiteSpace=wrap;rounded=0;movable=0;resizable=0;rotatable=0;deletable=0;editable=0;locked=1;connectable=0;" vertex="1" parent="Pd5JW28RCC70FqYIQPSd-1">
          <mxGeometry x="219" y="20" width="390" height="30" as="geometry" />
        </mxCell>
        <mxCell id="Pd5JW28RCC70FqYIQPSd-32" value="&lt;font style=&quot;font-size: 29px;&quot;&gt;Mobile (768 px&amp;nbsp;× 1024 px)&lt;/font&gt;" style="text;html=1;align=center;verticalAlign=middle;whiteSpace=wrap;rounded=0;movable=0;resizable=0;rotatable=0;deletable=0;editable=0;locked=1;connectable=0;" vertex="1" parent="Pd5JW28RCC70FqYIQPSd-1">
          <mxGeometry x="1046" y="20" width="390" height="30" as="geometry" />
        </mxCell>
      </root>
    </mxGraphModel>
  </diagram>
  <diagram name="2 - Home page" id="wg0Su5-PVhxG0W2Mhm9V">
    <mxGraphModel dx="1285" dy="641" grid="1" gridSize="10" guides="1" tooltips="1" connect="1" arrows="1" fold="1" page="1" pageScale="1" pageWidth="827" pageHeight="1169" math="0" shadow="0">
      <root>
        <mxCell id="0" />
        <mxCell id="1" parent="0" />
        <mxCell id="TjDeMMikOMxtwk6kXLO5-28" value="" style="strokeWidth=1;shadow=0;dashed=0;align=center;html=1;shape=mxgraph.mockup.containers.browserWindow;rSize=0;strokeColor=#666666;strokeColor2=#008cff;strokeColor3=#c4c4c4;mainText=,;recursiveResize=0;movable=1;resizable=1;rotatable=1;deletable=1;editable=1;locked=0;connectable=1;fillColor=light-dark(#d9e1e8, #ededed);gradientColor=default;" vertex="1" parent="1">
          <mxGeometry x="930" y="130" width="710" height="860" as="geometry" />
        </mxCell>
        <mxCell id="TjDeMMikOMxtwk6kXLO5-29" value="Page 1" style="strokeWidth=1;shadow=0;dashed=0;align=center;html=1;shape=mxgraph.mockup.containers.anchor;fontSize=17;fontColor=#666666;align=left;whiteSpace=wrap;" vertex="1" parent="TjDeMMikOMxtwk6kXLO5-28">
          <mxGeometry x="60" y="12" width="110" height="26" as="geometry" />
        </mxCell>
        <mxCell id="TjDeMMikOMxtwk6kXLO5-30" value="https://www.draw.io" style="strokeWidth=1;shadow=0;dashed=0;align=center;html=1;shape=mxgraph.mockup.containers.anchor;rSize=0;fontSize=17;fontColor=#666666;align=left;" vertex="1" parent="TjDeMMikOMxtwk6kXLO5-28">
          <mxGeometry x="130" y="60" width="250" height="26" as="geometry" />
        </mxCell>
        <mxCell id="X_IOjqRGUtl3rDkdea_k-1" value="" style="rounded=1;whiteSpace=wrap;html=1;fillColor=#b0e3e6;strokeColor=#0e8088;" vertex="1" parent="1">
          <mxGeometry x="1520" y="250" width="90" height="83" as="geometry" />
        </mxCell>
        <mxCell id="kCw0lwG7lji1GJIakQkj-1" value="" style="strokeWidth=1;shadow=0;dashed=0;align=center;html=1;shape=mxgraph.mockup.containers.browserWindow;rSize=0;strokeColor=light-dark(#33dbc6, #a0bcd2);strokeColor2=#008cff;strokeColor3=#c4c4c4;mainText=,;recursiveResize=0;movable=1;resizable=1;rotatable=1;deletable=1;editable=1;locked=0;connectable=1;fillColor=light-dark(#d9e1e8, #39454e);labelBorderColor=none;textShadow=0;gradientColor=none;fontColor=default;labelBackgroundColor=none;" vertex="1" parent="1">
          <mxGeometry x="30" y="70" width="769" height="576" as="geometry" />
        </mxCell>
        <mxCell id="TjDeMMikOMxtwk6kXLO5-4" value="" style="rounded=1;html=1;arcSize=7;labelBorderColor=light-dark(#32dbc6, #ededed);strokeColor=light-dark(#25B49D,#EDEDED);gradientColor=none;" vertex="1" parent="kCw0lwG7lji1GJIakQkj-1">
          <mxGeometry x="299" y="260" width="170" height="250" as="geometry" />
        </mxCell>
        <mxCell id="kCw0lwG7lji1GJIakQkj-2" value="" style="strokeWidth=1;shadow=0;dashed=0;align=center;html=1;shape=mxgraph.mockup.containers.anchor;fontSize=17;fontColor=#666666;align=left;whiteSpace=wrap;" vertex="1" parent="kCw0lwG7lji1GJIakQkj-1">
          <mxGeometry x="60" y="12" width="110" height="26" as="geometry" />
        </mxCell>
        <mxCell id="kCw0lwG7lji1GJIakQkj-3" value="" style="strokeWidth=1;shadow=0;dashed=0;align=center;html=1;shape=mxgraph.mockup.containers.anchor;rSize=0;fontSize=17;fontColor=#666666;align=left;" vertex="1" parent="kCw0lwG7lji1GJIakQkj-1">
          <mxGeometry x="130" y="60" width="250" height="26" as="geometry" />
        </mxCell>
        <mxCell id="0xbU8nVYAh5vqWE4jmWa-1" value="See More" style="strokeWidth=1;shadow=0;dashed=0;align=center;html=1;shape=mxgraph.mockup.buttons.button;strokeColor=default;mainText=;buttonStyle=round;fontSize=17;fontStyle=1;fillColor=light-dark(#e4fcfc, #1d293b);whiteSpace=wrap;gradientColor=light-dark(#92f4f2, #003938);" vertex="1" parent="kCw0lwG7lji1GJIakQkj-1">
          <mxGeometry x="308.5" y="440" width="150" height="50" as="geometry" />
        </mxCell>
        <mxCell id="TjDeMMikOMxtwk6kXLO5-25" value="MANA Advertisments" style="text;html=1;align=center;verticalAlign=middle;rounded=0;fontSize=19;fontColor=light-dark(#000000,#EDEDED);labelBorderColor=none;" vertex="1" parent="kCw0lwG7lji1GJIakQkj-1">
          <mxGeometry x="278.5" y="210" width="211" height="30" as="geometry" />
        </mxCell>
        <mxCell id="gb2dU_ufZ3AUZy07J2Dg-1" value="" style="rounded=0;whiteSpace=wrap;html=1;labelBackgroundColor=light-dark(#ABF6F5,#0E3A2F);fillColor=#C0FAFD;textShadow=1;" vertex="1" parent="kCw0lwG7lji1GJIakQkj-1">
          <mxGeometry x="-1" y="536" width="770" height="40" as="geometry" />
        </mxCell>
        <mxCell id="v2KNEXJ3wEDuHzQ-ImCX-1" value="All Rights Reserved" style="text;html=1;align=center;verticalAlign=middle;whiteSpace=wrap;rounded=0;" vertex="1" parent="kCw0lwG7lji1GJIakQkj-1">
          <mxGeometry x="249.5" y="541" width="270" height="30" as="geometry" />
        </mxCell>
        <mxCell id="k7ljWuZ41s31UtwO9sQt-2" value="Houses for sale" style="text;html=1;align=center;verticalAlign=middle;whiteSpace=wrap;rounded=0;" vertex="1" parent="kCw0lwG7lji1GJIakQkj-1">
          <mxGeometry x="338" y="270" width="90" height="30" as="geometry" />
        </mxCell>
        <mxCell id="kCw0lwG7lji1GJIakQkj-4" value="&lt;font style=&quot;font-size: 29px;&quot;&gt;Desktop (1024 px&amp;nbsp;× 768 px)&lt;/font&gt;" style="text;html=1;align=center;verticalAlign=middle;whiteSpace=wrap;rounded=0;movable=0;resizable=0;rotatable=0;deletable=0;editable=0;locked=1;connectable=0;" vertex="1" parent="1">
          <mxGeometry x="219" y="20" width="390" height="30" as="geometry" />
        </mxCell>
        <mxCell id="kCw0lwG7lji1GJIakQkj-8" value="&lt;font style=&quot;font-size: 29px;&quot;&gt;Mobile (768 px&amp;nbsp;× 1024 px)&lt;/font&gt;" style="text;html=1;align=center;verticalAlign=middle;whiteSpace=wrap;rounded=0;movable=0;resizable=0;rotatable=0;deletable=0;editable=0;locked=1;connectable=0;" vertex="1" parent="1">
          <mxGeometry x="1046" y="20" width="390" height="30" as="geometry" />
        </mxCell>
        <mxCell id="TjDeMMikOMxtwk6kXLO5-3" value="" style="rounded=1;whiteSpace=wrap;html=1;arcSize=7;strokeColor=#25B49D;" vertex="1" parent="1">
          <mxGeometry x="60" y="330" width="170" height="250" as="geometry" />
        </mxCell>
        <mxCell id="TjDeMMikOMxtwk6kXLO5-5" value="" style="rounded=1;whiteSpace=wrap;html=1;arcSize=7;strokeColor=#25B49D;" vertex="1" parent="1">
          <mxGeometry x="600" y="330" width="170" height="250" as="geometry" />
        </mxCell>
        <mxCell id="TjDeMMikOMxtwk6kXLO5-7" value="See More" style="strokeWidth=1;shadow=0;dashed=0;align=center;html=1;shape=mxgraph.mockup.buttons.button;strokeColor=default;mainText=;buttonStyle=round;fontSize=17;fontStyle=1;fillColor=light-dark(#e4fcfc, #1d293b);whiteSpace=wrap;gradientColor=light-dark(#92f4f2, #003938);" vertex="1" parent="1">
          <mxGeometry x="69" y="510" width="150" height="50" as="geometry" />
        </mxCell>
        <mxCell id="TjDeMMikOMxtwk6kXLO5-11" value="" style="verticalLabelPosition=bottom;verticalAlign=top;html=1;shadow=0;dashed=0;strokeWidth=1;shape=mxgraph.android.phone2;strokeColor=#c0c0c0;gradientColor=none;fillStyle=auto;movable=0;resizable=0;rotatable=0;deletable=0;editable=0;locked=1;connectable=0;" vertex="1" parent="1">
          <mxGeometry x="900" y="50" width="768" height="1024" as="geometry" />
        </mxCell>
        <mxCell id="TjDeMMikOMxtwk6kXLO5-12" value="" style="html=1;shadow=0;dashed=0;fillColor=default;strokeColor=light-dark(#1fd6b8, #5c79a3);fontSize=16;align=left;spacing=15;gradientColor=light-dark(#2fe9e6, #436697);" vertex="1" parent="1">
          <mxGeometry x="30" y="200" width="770" height="50" as="geometry" />
        </mxCell>
        <mxCell id="TjDeMMikOMxtwk6kXLO5-13" value="" style="swimlane;shape=mxgraph.bootstrap.anchor;strokeColor=none;fillColor=none;fontColor=#0085FC;fontStyle=0;childLayout=stackLayout;horizontal=0;startSize=0;horizontalStack=1;resizeParent=1;resizeParentMax=0;resizeLast=0;collapsible=0;marginBottom=0;whiteSpace=wrap;html=1;resizeWidth=0;" vertex="1" parent="TjDeMMikOMxtwk6kXLO5-12">
          <mxGeometry y="8.333333333333334" width="370" height="33.333333333333336" as="geometry" />
        </mxCell>
        <mxCell id="k7ljWuZ41s31UtwO9sQt-1" value="MANA" style="text;strokeColor=none;align=center;verticalAlign=middle;spacingLeft=10;spacingRight=10;points=[[0,0.5],[1,0.5]];portConstraint=eastwest;rotatable=0;whiteSpace=wrap;html=1;fillColor=none;fontColor=#181819;fontSize=16;" vertex="1" parent="TjDeMMikOMxtwk6kXLO5-13">
          <mxGeometry width="80" height="33.333333333333336" as="geometry" />
        </mxCell>
        <mxCell id="TjDeMMikOMxtwk6kXLO5-15" value="&lt;div&gt;Home&lt;/div&gt;" style="text;strokeColor=none;align=center;verticalAlign=middle;spacingLeft=10;spacingRight=10;points=[[0,0.5],[1,0.5]];portConstraint=eastwest;rotatable=0;whiteSpace=wrap;html=1;fillColor=none;fontColor=#181819;fontSize=14;" vertex="1" parent="TjDeMMikOMxtwk6kXLO5-13">
          <mxGeometry x="80" width="50" height="33.333333333333336" as="geometry" />
        </mxCell>
        <mxCell id="TjDeMMikOMxtwk6kXLO5-16" value="Login" style="text;strokeColor=none;align=center;verticalAlign=middle;spacingLeft=10;spacingRight=10;points=[[0,0.5],[1,0.5]];portConstraint=eastwest;rotatable=0;whiteSpace=wrap;html=1;fillColor=none;fontColor=#7C7C7D;fontSize=14;" vertex="1" parent="TjDeMMikOMxtwk6kXLO5-13">
          <mxGeometry x="130" width="70" height="33.333333333333336" as="geometry" />
        </mxCell>
        <mxCell id="TjDeMMikOMxtwk6kXLO5-17" value="Categories" style="text;strokeColor=none;align=left;verticalAlign=middle;spacingLeft=5;spacingRight=10;points=[[0,0.5],[1,0.5]];portConstraint=eastwest;rotatable=0;whiteSpace=wrap;html=1;fillColor=none;fontColor=#7C7C7D;fontSize=14;" vertex="1" parent="TjDeMMikOMxtwk6kXLO5-13">
          <mxGeometry x="200" width="90" height="33.333333333333336" as="geometry" />
        </mxCell>
        <mxCell id="TjDeMMikOMxtwk6kXLO5-18" value="" style="shape=triangle;direction=south;fillColor=#7C7C7D;strokeColor=none;perimeter=none;" vertex="1" parent="TjDeMMikOMxtwk6kXLO5-17">
          <mxGeometry x="1" y="0.5" width="10" height="5" relative="1" as="geometry">
            <mxPoint x="-17" y="-2.5" as="offset" />
          </mxGeometry>
        </mxCell>
        <mxCell id="TjDeMMikOMxtwk6kXLO5-19" value="Account" style="text;strokeColor=none;align=center;verticalAlign=middle;spacingLeft=10;spacingRight=10;points=[[0,0.5],[1,0.5]];portConstraint=eastwest;rotatable=0;whiteSpace=wrap;html=1;fillColor=none;fontColor=#ADAEAF;fontSize=14;" vertex="1" parent="TjDeMMikOMxtwk6kXLO5-13">
          <mxGeometry x="290" width="80" height="33.333333333333336" as="geometry" />
        </mxCell>
        <mxCell id="TjDeMMikOMxtwk6kXLO5-20" value="" style="html=1;shadow=0;dashed=0;shape=mxgraph.bootstrap.rrect;rSize=5;fontSize=14;fontColor=#33A64C;strokeColor=#33A64C;fillColor=none;" vertex="1" parent="TjDeMMikOMxtwk6kXLO5-12">
          <mxGeometry x="1" width="39" height="40" relative="1" as="geometry">
            <mxPoint x="-80" y="5" as="offset" />
          </mxGeometry>
        </mxCell>
        <mxCell id="TjDeMMikOMxtwk6kXLO5-21" value="Search" style="html=1;shadow=0;dashed=0;shape=mxgraph.bootstrap.rrect;rSize=5;fontSize=14;fontColor=#6C767D;strokeColor=#CED4DA;fillColor=#ffffff;align=left;spacing=10;" vertex="1" parent="TjDeMMikOMxtwk6kXLO5-12">
          <mxGeometry x="1" width="302" height="40" relative="1" as="geometry">
            <mxPoint x="-392" y="5" as="offset" />
          </mxGeometry>
        </mxCell>
        <mxCell id="TjDeMMikOMxtwk6kXLO5-26" value="" style="sketch=0;outlineConnect=0;fontColor=#232F3E;gradientColor=none;fillColor=#232F3D;strokeColor=none;dashed=0;verticalLabelPosition=bottom;verticalAlign=top;align=center;html=1;fontSize=12;fontStyle=0;aspect=fixed;pointerEvents=1;shape=mxgraph.aws4.magnifying_glass_2;" vertex="1" parent="TjDeMMikOMxtwk6kXLO5-12">
          <mxGeometry x="698.2739726027398" y="15" width="20" height="20" as="geometry" />
        </mxCell>
        <mxCell id="TjDeMMikOMxtwk6kXLO5-22" value="" style="verticalLabelPosition=bottom;shadow=0;dashed=0;align=center;html=1;verticalAlign=top;strokeWidth=1;shape=mxgraph.mockup.graphics.simpleIcon;strokeColor=#999999;" vertex="1" parent="1">
          <mxGeometry x="82.5" y="370" width="125" height="120" as="geometry" />
        </mxCell>
        <mxCell id="TjDeMMikOMxtwk6kXLO5-23" value="" style="verticalLabelPosition=bottom;shadow=0;dashed=0;align=center;html=1;verticalAlign=top;strokeWidth=1;shape=mxgraph.mockup.graphics.simpleIcon;strokeColor=#999999;" vertex="1" parent="1">
          <mxGeometry x="351.5" y="370" width="125" height="120" as="geometry" />
        </mxCell>
        <mxCell id="TjDeMMikOMxtwk6kXLO5-24" value="" style="verticalLabelPosition=bottom;shadow=0;dashed=0;align=center;html=1;verticalAlign=top;strokeWidth=1;shape=mxgraph.mockup.graphics.simpleIcon;strokeColor=#999999;" vertex="1" parent="1">
          <mxGeometry x="622.5" y="370" width="125" height="120" as="geometry" />
        </mxCell>
        <mxCell id="TjDeMMikOMxtwk6kXLO5-43" value="MANA Advertisments" style="text;html=1;align=center;verticalAlign=middle;whiteSpace=wrap;rounded=0;fontSize=30;" vertex="1" parent="1">
          <mxGeometry x="960" y="260" width="311.5" height="57" as="geometry" />
        </mxCell>
        <mxCell id="TjDeMMikOMxtwk6kXLO5-44" value="" style="rounded=1;whiteSpace=wrap;html=1;arcSize=7;" vertex="1" parent="1">
          <mxGeometry x="1199" y="460" width="170" height="240" as="geometry" />
        </mxCell>
        <mxCell id="TjDeMMikOMxtwk6kXLO5-45" value="See More" style="strokeWidth=1;shadow=0;dashed=0;align=center;html=1;shape=mxgraph.mockup.buttons.button;strokeColor=#666666;fontColor=#ffffff;mainText=;buttonStyle=round;fontSize=17;fontStyle=1;fillColor=#008cff;whiteSpace=wrap;" vertex="1" parent="1">
          <mxGeometry x="1208" y="630" width="150" height="50" as="geometry" />
        </mxCell>
        <mxCell id="TjDeMMikOMxtwk6kXLO5-46" value="" style="verticalLabelPosition=bottom;shadow=0;dashed=0;align=center;html=1;verticalAlign=top;strokeWidth=1;shape=mxgraph.mockup.graphics.simpleIcon;strokeColor=#999999;" vertex="1" parent="1">
          <mxGeometry x="1221.5" y="490" width="125" height="120" as="geometry" />
        </mxCell>
        <mxCell id="TjDeMMikOMxtwk6kXLO5-47" value="" style="rounded=1;whiteSpace=wrap;html=1;arcSize=7;" vertex="1" parent="1">
          <mxGeometry x="1200" y="740" width="170" height="240" as="geometry" />
        </mxCell>
        <mxCell id="TjDeMMikOMxtwk6kXLO5-48" value="See More" style="strokeWidth=1;shadow=0;dashed=0;align=center;html=1;shape=mxgraph.mockup.buttons.button;strokeColor=#666666;fontColor=#ffffff;mainText=;buttonStyle=round;fontSize=17;fontStyle=1;fillColor=#008cff;whiteSpace=wrap;" vertex="1" parent="1">
          <mxGeometry x="1209" y="910" width="150" height="50" as="geometry" />
        </mxCell>
        <mxCell id="TjDeMMikOMxtwk6kXLO5-49" value="" style="verticalLabelPosition=bottom;shadow=0;dashed=0;align=center;html=1;verticalAlign=top;strokeWidth=1;shape=mxgraph.mockup.graphics.simpleIcon;strokeColor=#999999;" vertex="1" parent="1">
          <mxGeometry x="1222.5" y="770" width="125" height="120" as="geometry" />
        </mxCell>
        <mxCell id="TjDeMMikOMxtwk6kXLO5-50" value="" style="verticalLabelPosition=bottom;shadow=0;dashed=0;align=center;html=1;verticalAlign=top;strokeWidth=1;shape=mxgraph.mockup.navigation.scrollBar;strokeColor=#999999;barPos=20;fillColor2=#99ddff;strokeColor2=none;direction=north;" vertex="1" parent="1">
          <mxGeometry x="1610" y="400" width="20" height="590" as="geometry" />
        </mxCell>
        <mxCell id="0xbU8nVYAh5vqWE4jmWa-2" value="See More" style="strokeWidth=1;shadow=0;dashed=0;align=center;html=1;shape=mxgraph.mockup.buttons.button;strokeColor=default;mainText=;buttonStyle=round;fontSize=17;fontStyle=1;fillColor=light-dark(#e4fcfc, #1d293b);whiteSpace=wrap;gradientColor=light-dark(#92f4f2, #003938);" vertex="1" parent="1">
          <mxGeometry x="609" y="510" width="150" height="50" as="geometry" />
        </mxCell>
        <mxCell id="RCpW82CziCf8ITN9IvBf-1" value="Cars for Sale" style="text;html=1;align=center;verticalAlign=middle;whiteSpace=wrap;rounded=0;" vertex="1" parent="1">
          <mxGeometry x="100" y="340" width="90" height="30" as="geometry" />
        </mxCell>
        <mxCell id="k7ljWuZ41s31UtwO9sQt-3" value="Houses for rent" style="text;html=1;align=center;verticalAlign=middle;whiteSpace=wrap;rounded=0;" vertex="1" parent="1">
          <mxGeometry x="640" y="340" width="90" height="30" as="geometry" />
        </mxCell>
      </root>
    </mxGraphModel>
  </diagram>
  <diagram name="3 - Results page" id="CFX7mWzj879JPZPTf9LM">
    <mxGraphModel dx="1855" dy="513" grid="1" gridSize="10" guides="1" tooltips="1" connect="1" arrows="1" fold="1" page="1" pageScale="1" pageWidth="827" pageHeight="1169" math="0" shadow="0">
      <root>
        <mxCell id="CVhTUh1RBvuxl1fpQ21g-0" />
        <mxCell id="CVhTUh1RBvuxl1fpQ21g-1" parent="CVhTUh1RBvuxl1fpQ21g-0" />
        <mxCell id="CVhTUh1RBvuxl1fpQ21g-2" value="" style="strokeWidth=1;shadow=0;dashed=0;align=center;html=1;shape=mxgraph.mockup.containers.browserWindow;rSize=0;strokeColor=light-dark(#33dbc6, #a0bcd2);strokeColor2=#008cff;strokeColor3=#c4c4c4;mainText=,;recursiveResize=0;movable=0;resizable=0;rotatable=0;deletable=0;editable=0;locked=1;connectable=0;fillColor=light-dark(#d9e1e8, #39454e);labelBorderColor=none;textShadow=0;gradientColor=none;fontColor=default;labelBackgroundColor=none;" vertex="1" parent="CVhTUh1RBvuxl1fpQ21g-1">
          <mxGeometry x="30" y="70" width="770" height="576" as="geometry" />
        </mxCell>
        <mxCell id="CVhTUh1RBvuxl1fpQ21g-3" value="" style="strokeWidth=1;shadow=0;dashed=0;align=center;html=1;shape=mxgraph.mockup.containers.anchor;fontSize=17;fontColor=#666666;align=left;whiteSpace=wrap;" vertex="1" parent="CVhTUh1RBvuxl1fpQ21g-2">
          <mxGeometry x="60" y="12" width="110" height="26" as="geometry" />
        </mxCell>
        <mxCell id="CVhTUh1RBvuxl1fpQ21g-4" value="" style="strokeWidth=1;shadow=0;dashed=0;align=center;html=1;shape=mxgraph.mockup.containers.anchor;rSize=0;fontSize=17;fontColor=#666666;align=left;" vertex="1" parent="CVhTUh1RBvuxl1fpQ21g-2">
          <mxGeometry x="130" y="60" width="250" height="26" as="geometry" />
        </mxCell>
        <mxCell id="CVhTUh1RBvuxl1fpQ21g-5" value="Results:" style="text;html=1;align=center;verticalAlign=middle;rounded=0;fontSize=19;fontColor=light-dark(#000000,#EDEDED);labelBorderColor=none;" vertex="1" parent="CVhTUh1RBvuxl1fpQ21g-2">
          <mxGeometry x="-40" y="170" width="211" height="30" as="geometry" />
        </mxCell>
        <mxCell id="CVhTUh1RBvuxl1fpQ21g-6" value="" style="rounded=0;whiteSpace=wrap;html=1;labelBackgroundColor=light-dark(#ABF6F5,#0E3A2F);fillColor=#C0FAFD;textShadow=1;" vertex="1" parent="CVhTUh1RBvuxl1fpQ21g-2">
          <mxGeometry x="-1" y="536" width="770" height="40" as="geometry" />
        </mxCell>
        <mxCell id="CVhTUh1RBvuxl1fpQ21g-7" value="All Rights Reserved" style="text;html=1;align=center;verticalAlign=middle;whiteSpace=wrap;rounded=0;" vertex="1" parent="CVhTUh1RBvuxl1fpQ21g-2">
          <mxGeometry x="249.5" y="541" width="270" height="30" as="geometry" />
        </mxCell>
        <mxCell id="CVhTUh1RBvuxl1fpQ21g-8" value="" style="html=1;shadow=0;dashed=0;fillColor=default;strokeColor=light-dark(#1fd6b8, #5c79a3);fontSize=16;align=left;spacing=15;gradientColor=light-dark(#2fe9e6, #436697);" vertex="1" parent="CVhTUh1RBvuxl1fpQ21g-2">
          <mxGeometry y="110" width="770" height="50" as="geometry" />
        </mxCell>
        <mxCell id="CVhTUh1RBvuxl1fpQ21g-9" value="" style="swimlane;shape=mxgraph.bootstrap.anchor;strokeColor=none;fillColor=none;fontColor=#0085FC;fontStyle=0;childLayout=stackLayout;horizontal=0;startSize=0;horizontalStack=1;resizeParent=1;resizeParentMax=0;resizeLast=0;collapsible=0;marginBottom=0;whiteSpace=wrap;html=1;resizeWidth=0;" vertex="1" parent="CVhTUh1RBvuxl1fpQ21g-8">
          <mxGeometry y="8.333333333333334" width="370" height="33.333333333333336" as="geometry" />
        </mxCell>
        <mxCell id="CVhTUh1RBvuxl1fpQ21g-10" value="MANA" style="text;strokeColor=none;align=center;verticalAlign=middle;spacingLeft=10;spacingRight=10;points=[[0,0.5],[1,0.5]];portConstraint=eastwest;rotatable=0;whiteSpace=wrap;html=1;fillColor=none;fontColor=#181819;fontSize=16;" vertex="1" parent="CVhTUh1RBvuxl1fpQ21g-9">
          <mxGeometry width="80" height="33.333333333333336" as="geometry" />
        </mxCell>
        <mxCell id="CVhTUh1RBvuxl1fpQ21g-11" value="&lt;div&gt;Home&lt;/div&gt;" style="text;strokeColor=none;align=center;verticalAlign=middle;spacingLeft=10;spacingRight=10;points=[[0,0.5],[1,0.5]];portConstraint=eastwest;rotatable=0;whiteSpace=wrap;html=1;fillColor=none;fontColor=#181819;fontSize=14;" vertex="1" parent="CVhTUh1RBvuxl1fpQ21g-9">
          <mxGeometry x="80" width="50" height="33.333333333333336" as="geometry" />
        </mxCell>
        <mxCell id="CVhTUh1RBvuxl1fpQ21g-12" value="Login" style="text;strokeColor=none;align=center;verticalAlign=middle;spacingLeft=10;spacingRight=10;points=[[0,0.5],[1,0.5]];portConstraint=eastwest;rotatable=0;whiteSpace=wrap;html=1;fillColor=none;fontColor=#7C7C7D;fontSize=14;" vertex="1" parent="CVhTUh1RBvuxl1fpQ21g-9">
          <mxGeometry x="130" width="70" height="33.333333333333336" as="geometry" />
        </mxCell>
        <mxCell id="CVhTUh1RBvuxl1fpQ21g-13" value="Categories" style="text;strokeColor=none;align=left;verticalAlign=middle;spacingLeft=5;spacingRight=10;points=[[0,0.5],[1,0.5]];portConstraint=eastwest;rotatable=0;whiteSpace=wrap;html=1;fillColor=none;fontColor=#7C7C7D;fontSize=14;" vertex="1" parent="CVhTUh1RBvuxl1fpQ21g-9">
          <mxGeometry x="200" width="90" height="33.333333333333336" as="geometry" />
        </mxCell>
        <mxCell id="CVhTUh1RBvuxl1fpQ21g-14" value="" style="shape=triangle;direction=south;fillColor=#7C7C7D;strokeColor=none;perimeter=none;" vertex="1" parent="CVhTUh1RBvuxl1fpQ21g-13">
          <mxGeometry x="1" y="0.5" width="10" height="5" relative="1" as="geometry">
            <mxPoint x="-17" y="-2.5" as="offset" />
          </mxGeometry>
        </mxCell>
        <mxCell id="CVhTUh1RBvuxl1fpQ21g-15" value="Account" style="text;strokeColor=none;align=center;verticalAlign=middle;spacingLeft=10;spacingRight=10;points=[[0,0.5],[1,0.5]];portConstraint=eastwest;rotatable=0;whiteSpace=wrap;html=1;fillColor=none;fontColor=#ADAEAF;fontSize=14;" vertex="1" parent="CVhTUh1RBvuxl1fpQ21g-9">
          <mxGeometry x="290" width="80" height="33.333333333333336" as="geometry" />
        </mxCell>
        <mxCell id="CVhTUh1RBvuxl1fpQ21g-16" value="" style="html=1;shadow=0;dashed=0;shape=mxgraph.bootstrap.rrect;rSize=5;fontSize=14;fontColor=#33A64C;strokeColor=#33A64C;fillColor=none;" vertex="1" parent="CVhTUh1RBvuxl1fpQ21g-8">
          <mxGeometry x="1" width="39" height="40" relative="1" as="geometry">
            <mxPoint x="-80" y="5" as="offset" />
          </mxGeometry>
        </mxCell>
        <mxCell id="CVhTUh1RBvuxl1fpQ21g-17" value="Search" style="html=1;shadow=0;dashed=0;shape=mxgraph.bootstrap.rrect;rSize=5;fontSize=14;fontColor=#6C767D;strokeColor=#CED4DA;fillColor=#ffffff;align=left;spacing=10;" vertex="1" parent="CVhTUh1RBvuxl1fpQ21g-8">
          <mxGeometry x="1" width="231" height="40" relative="1" as="geometry">
            <mxPoint x="-321" y="5" as="offset" />
          </mxGeometry>
        </mxCell>
        <mxCell id="CVhTUh1RBvuxl1fpQ21g-18" value="" style="sketch=0;outlineConnect=0;fontColor=#232F3E;gradientColor=none;fillColor=#232F3D;strokeColor=none;dashed=0;verticalLabelPosition=bottom;verticalAlign=top;align=center;html=1;fontSize=12;fontStyle=0;aspect=fixed;pointerEvents=1;shape=mxgraph.aws4.magnifying_glass_2;" vertex="1" parent="CVhTUh1RBvuxl1fpQ21g-8">
          <mxGeometry x="698.2739726027396" y="15" width="20" height="20" as="geometry" />
        </mxCell>
        <mxCell id="CVhTUh1RBvuxl1fpQ21g-23" value="Tittle" style="text;html=1;align=center;verticalAlign=middle;whiteSpace=wrap;rounded=0;" vertex="1" parent="CVhTUh1RBvuxl1fpQ21g-2">
          <mxGeometry x="130" y="243" width="90" height="30" as="geometry" />
        </mxCell>
        <mxCell id="CVhTUh1RBvuxl1fpQ21g-24" value="Cost:" style="text;html=1;align=center;verticalAlign=middle;whiteSpace=wrap;rounded=0;" vertex="1" parent="CVhTUh1RBvuxl1fpQ21g-2">
          <mxGeometry x="150" y="273" width="60" height="30" as="geometry" />
        </mxCell>
        <mxCell id="CVhTUh1RBvuxl1fpQ21g-26" value="More Details" style="text;html=1;align=center;verticalAlign=middle;whiteSpace=wrap;rounded=0;" vertex="1" parent="CVhTUh1RBvuxl1fpQ21g-2">
          <mxGeometry x="150" y="300" width="90" height="30" as="geometry" />
        </mxCell>
        <mxCell id="PJAFE5PsoCbVyFjeUs6o-0" value="" style="rounded=0;whiteSpace=wrap;html=1;fillColor=none;container=1;" vertex="1" parent="CVhTUh1RBvuxl1fpQ21g-2">
          <mxGeometry x="30" y="223" width="440" height="130" as="geometry" />
        </mxCell>
        <mxCell id="PJAFE5PsoCbVyFjeUs6o-2" value="" style="rounded=0;whiteSpace=wrap;html=1;fillColor=none;" vertex="1" parent="CVhTUh1RBvuxl1fpQ21g-2">
          <mxGeometry x="30" y="370" width="440" height="130" as="geometry" />
        </mxCell>
        <mxCell id="PJAFE5PsoCbVyFjeUs6o-3" value="" style="verticalLabelPosition=bottom;shadow=0;dashed=0;align=center;html=1;verticalAlign=top;strokeWidth=1;shape=mxgraph.mockup.graphics.simpleIcon;strokeColor=#999999;" vertex="1" parent="CVhTUh1RBvuxl1fpQ21g-2">
          <mxGeometry x="50" y="390" width="90" height="90" as="geometry" />
        </mxCell>
        <mxCell id="PJAFE5PsoCbVyFjeUs6o-4" value="Tittle" style="text;html=1;align=center;verticalAlign=middle;whiteSpace=wrap;rounded=0;" vertex="1" parent="CVhTUh1RBvuxl1fpQ21g-2">
          <mxGeometry x="145" y="390" width="60" height="30" as="geometry" />
        </mxCell>
        <mxCell id="PJAFE5PsoCbVyFjeUs6o-5" value="Cost:" style="text;html=1;align=center;verticalAlign=middle;whiteSpace=wrap;rounded=0;" vertex="1" parent="CVhTUh1RBvuxl1fpQ21g-2">
          <mxGeometry x="145" y="420" width="60" height="30" as="geometry" />
        </mxCell>
        <mxCell id="PJAFE5PsoCbVyFjeUs6o-6" value="&lt;u&gt;More Details:&lt;/u&gt;" style="text;html=1;align=center;verticalAlign=middle;whiteSpace=wrap;rounded=0;" vertex="1" parent="CVhTUh1RBvuxl1fpQ21g-2">
          <mxGeometry x="152.5" y="450" width="85" height="30" as="geometry" />
        </mxCell>
        <mxCell id="CVhTUh1RBvuxl1fpQ21g-19" value="&lt;font style=&quot;font-size: 29px;&quot;&gt;Desktop (1024 px&amp;nbsp;× 768 px)&lt;/font&gt;" style="text;html=1;align=center;verticalAlign=middle;whiteSpace=wrap;rounded=0;movable=0;resizable=0;rotatable=0;deletable=0;editable=0;locked=1;connectable=0;" vertex="1" parent="CVhTUh1RBvuxl1fpQ21g-1">
          <mxGeometry x="219" y="20" width="390" height="30" as="geometry" />
        </mxCell>
        <mxCell id="CVhTUh1RBvuxl1fpQ21g-20" value="&lt;font style=&quot;font-size: 29px;&quot;&gt;Mobile (768 px&amp;nbsp;× 1024 px)&lt;/font&gt;" style="text;html=1;align=center;verticalAlign=middle;whiteSpace=wrap;rounded=0;movable=0;resizable=0;rotatable=0;deletable=0;editable=0;locked=1;connectable=0;" vertex="1" parent="CVhTUh1RBvuxl1fpQ21g-1">
          <mxGeometry x="1046" y="20" width="390" height="30" as="geometry" />
        </mxCell>
        <mxCell id="PJAFE5PsoCbVyFjeUs6o-1" value="" style="rounded=0;whiteSpace=wrap;html=1;fillColor=none;container=1;" vertex="1" parent="CVhTUh1RBvuxl1fpQ21g-1">
          <mxGeometry x="60" y="293" width="440" height="130" as="geometry" />
        </mxCell>
        <mxCell id="CVhTUh1RBvuxl1fpQ21g-22" value="" style="verticalLabelPosition=bottom;shadow=0;dashed=0;align=center;html=1;verticalAlign=top;strokeWidth=1;shape=mxgraph.mockup.graphics.simpleIcon;strokeColor=#999999;" vertex="1" parent="CVhTUh1RBvuxl1fpQ21g-1">
          <mxGeometry x="80" y="310" width="90" height="90" as="geometry" />
        </mxCell>
      </root>
    </mxGraphModel>
  </diagram>
  <diagram name="4 - Advert Details page" id="qZXJgsRI69V9I44nTygS">
    <mxGraphModel dx="1142" dy="570" grid="1" gridSize="10" guides="1" tooltips="1" connect="1" arrows="1" fold="1" page="1" pageScale="1" pageWidth="827" pageHeight="1169" math="0" shadow="0">
      <root>
        <mxCell id="AExgiQC4tos1_PMAgKKE-0" />
        <mxCell id="AExgiQC4tos1_PMAgKKE-1" parent="AExgiQC4tos1_PMAgKKE-0" />
        <mxCell id="AExgiQC4tos1_PMAgKKE-6" value="" style="strokeWidth=1;shadow=0;dashed=0;align=center;html=1;shape=mxgraph.mockup.containers.browserWindow;rSize=0;strokeColor=light-dark(#33dbc6, #a0bcd2);strokeColor2=#008cff;strokeColor3=#c4c4c4;mainText=,;recursiveResize=0;movable=1;resizable=1;rotatable=1;deletable=1;editable=1;locked=0;connectable=1;fillColor=light-dark(#d9e1e8, #39454e);labelBorderColor=none;textShadow=0;gradientColor=none;fontColor=default;labelBackgroundColor=none;" vertex="1" parent="AExgiQC4tos1_PMAgKKE-1">
          <mxGeometry x="30" y="70" width="770" height="576" as="geometry" />
        </mxCell>
        <mxCell id="AExgiQC4tos1_PMAgKKE-8" value="" style="strokeWidth=1;shadow=0;dashed=0;align=center;html=1;shape=mxgraph.mockup.containers.anchor;fontSize=17;fontColor=#666666;align=left;whiteSpace=wrap;" vertex="1" parent="AExgiQC4tos1_PMAgKKE-6">
          <mxGeometry x="60" y="12" width="110" height="26" as="geometry" />
        </mxCell>
        <mxCell id="AExgiQC4tos1_PMAgKKE-9" value="" style="strokeWidth=1;shadow=0;dashed=0;align=center;html=1;shape=mxgraph.mockup.containers.anchor;rSize=0;fontSize=17;fontColor=#666666;align=left;" vertex="1" parent="AExgiQC4tos1_PMAgKKE-6">
          <mxGeometry x="130" y="60" width="250" height="26" as="geometry" />
        </mxCell>
        <mxCell id="AExgiQC4tos1_PMAgKKE-11" value="Advert Details:" style="text;html=1;align=center;verticalAlign=middle;rounded=0;fontSize=19;labelBorderColor=none;movable=1;resizable=1;rotatable=1;deletable=1;editable=1;locked=0;connectable=1;" vertex="1" parent="AExgiQC4tos1_PMAgKKE-6">
          <mxGeometry x="20" y="170" width="211" height="30" as="geometry" />
        </mxCell>
        <mxCell id="AExgiQC4tos1_PMAgKKE-12" value="" style="rounded=0;whiteSpace=wrap;html=1;labelBackgroundColor=light-dark(#ABF6F5,#0E3A2F);fillColor=#C0FAFD;textShadow=1;" vertex="1" parent="AExgiQC4tos1_PMAgKKE-6">
          <mxGeometry x="-1" y="536" width="770" height="40" as="geometry" />
        </mxCell>
        <mxCell id="AExgiQC4tos1_PMAgKKE-13" value="All Rights Reserved" style="text;html=1;align=center;verticalAlign=middle;whiteSpace=wrap;rounded=0;" vertex="1" parent="AExgiQC4tos1_PMAgKKE-6">
          <mxGeometry x="249.5" y="541" width="270" height="30" as="geometry" />
        </mxCell>
        <mxCell id="AExgiQC4tos1_PMAgKKE-20" value="" style="html=1;shadow=0;dashed=0;fillColor=default;strokeColor=light-dark(#1fd6b8, #5c79a3);fontSize=16;align=left;spacing=15;gradientColor=light-dark(#2fe9e6, #436697);" vertex="1" parent="AExgiQC4tos1_PMAgKKE-6">
          <mxGeometry y="110" width="770" height="50" as="geometry" />
        </mxCell>
        <mxCell id="AExgiQC4tos1_PMAgKKE-21" value="" style="swimlane;shape=mxgraph.bootstrap.anchor;strokeColor=none;fillColor=none;fontColor=#0085FC;fontStyle=0;childLayout=stackLayout;horizontal=0;startSize=0;horizontalStack=1;resizeParent=1;resizeParentMax=0;resizeLast=0;collapsible=0;marginBottom=0;whiteSpace=wrap;html=1;resizeWidth=0;" vertex="1" parent="AExgiQC4tos1_PMAgKKE-20">
          <mxGeometry y="8.333333333333334" width="370" height="33.333333333333336" as="geometry" />
        </mxCell>
        <mxCell id="AExgiQC4tos1_PMAgKKE-22" value="MANA" style="text;strokeColor=none;align=center;verticalAlign=middle;spacingLeft=10;spacingRight=10;points=[[0,0.5],[1,0.5]];portConstraint=eastwest;rotatable=0;whiteSpace=wrap;html=1;fillColor=none;fontColor=#181819;fontSize=16;" vertex="1" parent="AExgiQC4tos1_PMAgKKE-21">
          <mxGeometry width="80" height="33.333333333333336" as="geometry" />
        </mxCell>
        <mxCell id="AExgiQC4tos1_PMAgKKE-23" value="&lt;div&gt;Home&lt;/div&gt;" style="text;strokeColor=none;align=center;verticalAlign=middle;spacingLeft=10;spacingRight=10;points=[[0,0.5],[1,0.5]];portConstraint=eastwest;rotatable=0;whiteSpace=wrap;html=1;fillColor=none;fontColor=#181819;fontSize=14;" vertex="1" parent="AExgiQC4tos1_PMAgKKE-21">
          <mxGeometry x="80" width="50" height="33.333333333333336" as="geometry" />
        </mxCell>
        <mxCell id="AExgiQC4tos1_PMAgKKE-24" value="Login" style="text;strokeColor=none;align=center;verticalAlign=middle;spacingLeft=10;spacingRight=10;points=[[0,0.5],[1,0.5]];portConstraint=eastwest;rotatable=0;whiteSpace=wrap;html=1;fillColor=none;fontColor=#7C7C7D;fontSize=14;" vertex="1" parent="AExgiQC4tos1_PMAgKKE-21">
          <mxGeometry x="130" width="70" height="33.333333333333336" as="geometry" />
        </mxCell>
        <mxCell id="AExgiQC4tos1_PMAgKKE-25" value="Categories" style="text;strokeColor=none;align=left;verticalAlign=middle;spacingLeft=5;spacingRight=10;points=[[0,0.5],[1,0.5]];portConstraint=eastwest;rotatable=0;whiteSpace=wrap;html=1;fillColor=none;fontColor=#7C7C7D;fontSize=14;" vertex="1" parent="AExgiQC4tos1_PMAgKKE-21">
          <mxGeometry x="200" width="90" height="33.333333333333336" as="geometry" />
        </mxCell>
        <mxCell id="AExgiQC4tos1_PMAgKKE-26" value="" style="shape=triangle;direction=south;fillColor=#7C7C7D;strokeColor=none;perimeter=none;" vertex="1" parent="AExgiQC4tos1_PMAgKKE-25">
          <mxGeometry x="1" y="0.5" width="10" height="5" relative="1" as="geometry">
            <mxPoint x="-17" y="-2.5" as="offset" />
          </mxGeometry>
        </mxCell>
        <mxCell id="AExgiQC4tos1_PMAgKKE-27" value="Account" style="text;strokeColor=none;align=center;verticalAlign=middle;spacingLeft=10;spacingRight=10;points=[[0,0.5],[1,0.5]];portConstraint=eastwest;rotatable=0;whiteSpace=wrap;html=1;fillColor=none;fontColor=#ADAEAF;fontSize=14;" vertex="1" parent="AExgiQC4tos1_PMAgKKE-21">
          <mxGeometry x="290" width="80" height="33.333333333333336" as="geometry" />
        </mxCell>
        <mxCell id="AExgiQC4tos1_PMAgKKE-28" value="" style="html=1;shadow=0;dashed=0;shape=mxgraph.bootstrap.rrect;rSize=5;fontSize=14;fontColor=#33A64C;strokeColor=#33A64C;fillColor=none;" vertex="1" parent="AExgiQC4tos1_PMAgKKE-20">
          <mxGeometry x="1" width="39" height="40" relative="1" as="geometry">
            <mxPoint x="-80" y="5" as="offset" />
          </mxGeometry>
        </mxCell>
        <mxCell id="AExgiQC4tos1_PMAgKKE-29" value="Search" style="html=1;shadow=0;dashed=0;shape=mxgraph.bootstrap.rrect;rSize=5;fontSize=14;fontColor=#6C767D;strokeColor=#CED4DA;fillColor=#ffffff;align=left;spacing=10;" vertex="1" parent="AExgiQC4tos1_PMAgKKE-20">
          <mxGeometry x="1" width="231" height="40" relative="1" as="geometry">
            <mxPoint x="-321" y="5" as="offset" />
          </mxGeometry>
        </mxCell>
        <mxCell id="AExgiQC4tos1_PMAgKKE-30" value="" style="sketch=0;outlineConnect=0;fontColor=#232F3E;gradientColor=none;fillColor=#232F3D;strokeColor=none;dashed=0;verticalLabelPosition=bottom;verticalAlign=top;align=center;html=1;fontSize=12;fontStyle=0;aspect=fixed;pointerEvents=1;shape=mxgraph.aws4.magnifying_glass_2;" vertex="1" parent="AExgiQC4tos1_PMAgKKE-20">
          <mxGeometry x="698.2739726027396" y="15" width="20" height="20" as="geometry" />
        </mxCell>
        <mxCell id="AExgiQC4tos1_PMAgKKE-14" value="&lt;font style=&quot;font-size: 29px;&quot;&gt;Desktop (1024 px&amp;nbsp;× 768 px)&lt;/font&gt;" style="text;html=1;align=center;verticalAlign=middle;whiteSpace=wrap;rounded=0;movable=0;resizable=0;rotatable=0;deletable=0;editable=0;locked=1;connectable=0;" vertex="1" parent="AExgiQC4tos1_PMAgKKE-1">
          <mxGeometry x="219" y="20" width="390" height="30" as="geometry" />
        </mxCell>
        <mxCell id="AExgiQC4tos1_PMAgKKE-15" value="&lt;font style=&quot;font-size: 29px;&quot;&gt;Mobile (768 px&amp;nbsp;× 1024 px)&lt;/font&gt;" style="text;html=1;align=center;verticalAlign=middle;whiteSpace=wrap;rounded=0;movable=0;resizable=0;rotatable=0;deletable=0;editable=0;locked=1;connectable=0;" vertex="1" parent="AExgiQC4tos1_PMAgKKE-1">
          <mxGeometry x="1046" y="20" width="390" height="30" as="geometry" />
        </mxCell>
        <mxCell id="AExgiQC4tos1_PMAgKKE-16" value="" style="rounded=1;whiteSpace=wrap;html=1;arcSize=7;strokeColor=#25B49D;movable=0;resizable=0;rotatable=0;deletable=0;editable=0;locked=1;connectable=0;" vertex="1" parent="AExgiQC4tos1_PMAgKKE-1">
          <mxGeometry x="60" y="270" width="490" height="320" as="geometry" />
        </mxCell>
        <mxCell id="AExgiQC4tos1_PMAgKKE-31" value="" style="verticalLabelPosition=bottom;shadow=0;dashed=0;align=center;html=1;verticalAlign=top;strokeWidth=1;shape=mxgraph.mockup.graphics.simpleIcon;strokeColor=#999999;" vertex="1" parent="AExgiQC4tos1_PMAgKKE-1">
          <mxGeometry x="80" y="310" width="190" height="190" as="geometry" />
        </mxCell>
        <mxCell id="9F4Q5sbjrKJGnQkga17j-1" value="Tittle" style="text;html=1;align=center;verticalAlign=middle;whiteSpace=wrap;rounded=0;" vertex="1" parent="AExgiQC4tos1_PMAgKKE-1">
          <mxGeometry x="129" y="280" width="90" height="30" as="geometry" />
        </mxCell>
        <mxCell id="9F4Q5sbjrKJGnQkga17j-2" value="Cost:" style="text;html=1;align=center;verticalAlign=middle;whiteSpace=wrap;rounded=0;" vertex="1" parent="AExgiQC4tos1_PMAgKKE-1">
          <mxGeometry x="300" y="320" width="60" height="30" as="geometry" />
        </mxCell>
        <mxCell id="9F4Q5sbjrKJGnQkga17j-3" value="Description" style="text;html=1;align=center;verticalAlign=middle;whiteSpace=wrap;rounded=0;" vertex="1" parent="AExgiQC4tos1_PMAgKKE-1">
          <mxGeometry x="80" y="510" width="60" height="30" as="geometry" />
        </mxCell>
        <mxCell id="9F4Q5sbjrKJGnQkga17j-4" value="Contact Information:" style="text;html=1;align=center;verticalAlign=middle;whiteSpace=wrap;rounded=0;" vertex="1" parent="AExgiQC4tos1_PMAgKKE-1">
          <mxGeometry x="300" y="380" width="60" height="30" as="geometry" />
        </mxCell>
        <mxCell id="9F4Q5sbjrKJGnQkga17j-5" value="Owner:" style="text;html=1;align=center;verticalAlign=middle;whiteSpace=wrap;rounded=0;" vertex="1" parent="AExgiQC4tos1_PMAgKKE-1">
          <mxGeometry x="300" y="450" width="60" height="30" as="geometry" />
        </mxCell>
        <mxCell id="9F4Q5sbjrKJGnQkga17j-6" value="" style="rounded=1;whiteSpace=wrap;html=1;" vertex="1" parent="AExgiQC4tos1_PMAgKKE-1">
          <mxGeometry x="370" y="320" width="120" height="30" as="geometry" />
        </mxCell>
        <mxCell id="9F4Q5sbjrKJGnQkga17j-7" value="" style="rounded=1;whiteSpace=wrap;html=1;" vertex="1" parent="AExgiQC4tos1_PMAgKKE-1">
          <mxGeometry x="370" y="380" width="120" height="30" as="geometry" />
        </mxCell>
        <mxCell id="9F4Q5sbjrKJGnQkga17j-8" value="" style="rounded=1;whiteSpace=wrap;html=1;" vertex="1" parent="AExgiQC4tos1_PMAgKKE-1">
          <mxGeometry x="370" y="450" width="120" height="30" as="geometry" />
        </mxCell>
        <mxCell id="9F4Q5sbjrKJGnQkga17j-9" value="" style="rounded=1;whiteSpace=wrap;html=1;" vertex="1" parent="AExgiQC4tos1_PMAgKKE-1">
          <mxGeometry x="150" y="520" width="380" height="60" as="geometry" />
        </mxCell>
      </root>
    </mxGraphModel>
  </diagram>
  <diagram name="5 - Create Advert page" id="RkpJwC12zrfKg3NN8Zta">
    <mxGraphModel dx="1209" dy="604" grid="1" gridSize="10" guides="1" tooltips="1" connect="1" arrows="1" fold="1" page="1" pageScale="1" pageWidth="827" pageHeight="1169" math="0" shadow="0">
      <root>
        <mxCell id="pnJpJJiO39RtWvCnRvAp-0" />
        <mxCell id="pnJpJJiO39RtWvCnRvAp-1" parent="pnJpJJiO39RtWvCnRvAp-0" />
        <mxCell id="pnJpJJiO39RtWvCnRvAp-2" value="" style="strokeWidth=1;shadow=0;dashed=0;align=center;html=1;shape=mxgraph.mockup.containers.browserWindow;rSize=0;strokeColor=light-dark(#33dbc6, #a0bcd2);strokeColor2=#008cff;strokeColor3=#c4c4c4;mainText=,;recursiveResize=0;movable=1;resizable=1;rotatable=1;deletable=1;editable=1;locked=0;connectable=1;fillColor=light-dark(#d9e1e8, #39454e);labelBorderColor=none;textShadow=0;gradientColor=none;fontColor=default;labelBackgroundColor=none;" vertex="1" parent="pnJpJJiO39RtWvCnRvAp-1">
          <mxGeometry x="30" y="70" width="770" height="576" as="geometry" />
        </mxCell>
        <mxCell id="pnJpJJiO39RtWvCnRvAp-3" value="" style="strokeWidth=1;shadow=0;dashed=0;align=center;html=1;shape=mxgraph.mockup.containers.anchor;fontSize=17;fontColor=#666666;align=left;whiteSpace=wrap;" vertex="1" parent="pnJpJJiO39RtWvCnRvAp-2">
          <mxGeometry x="60" y="12" width="110" height="26" as="geometry" />
        </mxCell>
        <mxCell id="pnJpJJiO39RtWvCnRvAp-4" value="" style="strokeWidth=1;shadow=0;dashed=0;align=center;html=1;shape=mxgraph.mockup.containers.anchor;rSize=0;fontSize=17;fontColor=#666666;align=left;" vertex="1" parent="pnJpJJiO39RtWvCnRvAp-2">
          <mxGeometry x="130" y="60" width="250" height="26" as="geometry" />
        </mxCell>
        <mxCell id="pnJpJJiO39RtWvCnRvAp-5" value="Create Advert:" style="text;html=1;align=center;verticalAlign=middle;rounded=0;fontSize=19;fontColor=light-dark(#000000,#EDEDED);labelBorderColor=none;" vertex="1" parent="pnJpJJiO39RtWvCnRvAp-2">
          <mxGeometry x="278" y="170" width="211" height="30" as="geometry" />
        </mxCell>
        <mxCell id="pnJpJJiO39RtWvCnRvAp-6" value="" style="rounded=0;whiteSpace=wrap;html=1;labelBackgroundColor=light-dark(#ABF6F5,#0E3A2F);fillColor=#C0FAFD;textShadow=1;" vertex="1" parent="pnJpJJiO39RtWvCnRvAp-2">
          <mxGeometry x="-1" y="536" width="770" height="40" as="geometry" />
        </mxCell>
        <mxCell id="pnJpJJiO39RtWvCnRvAp-7" value="All Rights Reserved" style="text;html=1;align=center;verticalAlign=middle;whiteSpace=wrap;rounded=0;" vertex="1" parent="pnJpJJiO39RtWvCnRvAp-2">
          <mxGeometry x="249.5" y="541" width="270" height="30" as="geometry" />
        </mxCell>
        <mxCell id="pnJpJJiO39RtWvCnRvAp-8" value="" style="html=1;shadow=0;dashed=0;fillColor=default;strokeColor=light-dark(#1fd6b8, #5c79a3);fontSize=16;align=left;spacing=15;gradientColor=light-dark(#2fe9e6, #436697);" vertex="1" parent="pnJpJJiO39RtWvCnRvAp-2">
          <mxGeometry y="110" width="770" height="50" as="geometry" />
        </mxCell>
        <mxCell id="pnJpJJiO39RtWvCnRvAp-9" value="" style="swimlane;shape=mxgraph.bootstrap.anchor;strokeColor=none;fillColor=none;fontColor=#0085FC;fontStyle=0;childLayout=stackLayout;horizontal=0;startSize=0;horizontalStack=1;resizeParent=1;resizeParentMax=0;resizeLast=0;collapsible=0;marginBottom=0;whiteSpace=wrap;html=1;resizeWidth=0;" vertex="1" parent="pnJpJJiO39RtWvCnRvAp-8">
          <mxGeometry y="8.333333333333334" width="370" height="33.333333333333336" as="geometry" />
        </mxCell>
        <mxCell id="pnJpJJiO39RtWvCnRvAp-10" value="MANA" style="text;strokeColor=none;align=center;verticalAlign=middle;spacingLeft=10;spacingRight=10;points=[[0,0.5],[1,0.5]];portConstraint=eastwest;rotatable=0;whiteSpace=wrap;html=1;fillColor=none;fontColor=#181819;fontSize=16;" vertex="1" parent="pnJpJJiO39RtWvCnRvAp-9">
          <mxGeometry width="80" height="33.333333333333336" as="geometry" />
        </mxCell>
        <mxCell id="pnJpJJiO39RtWvCnRvAp-11" value="&lt;div&gt;Home&lt;/div&gt;" style="text;strokeColor=none;align=center;verticalAlign=middle;spacingLeft=10;spacingRight=10;points=[[0,0.5],[1,0.5]];portConstraint=eastwest;rotatable=0;whiteSpace=wrap;html=1;fillColor=none;fontColor=#181819;fontSize=14;" vertex="1" parent="pnJpJJiO39RtWvCnRvAp-9">
          <mxGeometry x="80" width="50" height="33.333333333333336" as="geometry" />
        </mxCell>
        <mxCell id="pnJpJJiO39RtWvCnRvAp-12" value="Login" style="text;strokeColor=none;align=center;verticalAlign=middle;spacingLeft=10;spacingRight=10;points=[[0,0.5],[1,0.5]];portConstraint=eastwest;rotatable=0;whiteSpace=wrap;html=1;fillColor=none;fontColor=#7C7C7D;fontSize=14;" vertex="1" parent="pnJpJJiO39RtWvCnRvAp-9">
          <mxGeometry x="130" width="70" height="33.333333333333336" as="geometry" />
        </mxCell>
        <mxCell id="pnJpJJiO39RtWvCnRvAp-13" value="Categories" style="text;strokeColor=none;align=left;verticalAlign=middle;spacingLeft=5;spacingRight=10;points=[[0,0.5],[1,0.5]];portConstraint=eastwest;rotatable=0;whiteSpace=wrap;html=1;fillColor=none;fontColor=#7C7C7D;fontSize=14;" vertex="1" parent="pnJpJJiO39RtWvCnRvAp-9">
          <mxGeometry x="200" width="90" height="33.333333333333336" as="geometry" />
        </mxCell>
        <mxCell id="pnJpJJiO39RtWvCnRvAp-14" value="" style="shape=triangle;direction=south;fillColor=#7C7C7D;strokeColor=none;perimeter=none;" vertex="1" parent="pnJpJJiO39RtWvCnRvAp-13">
          <mxGeometry x="1" y="0.5" width="10" height="5" relative="1" as="geometry">
            <mxPoint x="-17" y="-2.5" as="offset" />
          </mxGeometry>
        </mxCell>
        <mxCell id="pnJpJJiO39RtWvCnRvAp-15" value="Account" style="text;strokeColor=none;align=center;verticalAlign=middle;spacingLeft=10;spacingRight=10;points=[[0,0.5],[1,0.5]];portConstraint=eastwest;rotatable=0;whiteSpace=wrap;html=1;fillColor=none;fontColor=#ADAEAF;fontSize=14;" vertex="1" parent="pnJpJJiO39RtWvCnRvAp-9">
          <mxGeometry x="290" width="80" height="33.333333333333336" as="geometry" />
        </mxCell>
        <mxCell id="pnJpJJiO39RtWvCnRvAp-16" value="" style="html=1;shadow=0;dashed=0;shape=mxgraph.bootstrap.rrect;rSize=5;fontSize=14;fontColor=#33A64C;strokeColor=#33A64C;fillColor=none;" vertex="1" parent="pnJpJJiO39RtWvCnRvAp-8">
          <mxGeometry x="1" width="39" height="40" relative="1" as="geometry">
            <mxPoint x="-80" y="5" as="offset" />
          </mxGeometry>
        </mxCell>
        <mxCell id="pnJpJJiO39RtWvCnRvAp-17" value="Search" style="html=1;shadow=0;dashed=0;shape=mxgraph.bootstrap.rrect;rSize=5;fontSize=14;fontColor=#6C767D;strokeColor=#CED4DA;fillColor=#ffffff;align=left;spacing=10;" vertex="1" parent="pnJpJJiO39RtWvCnRvAp-8">
          <mxGeometry x="1" width="231" height="40" relative="1" as="geometry">
            <mxPoint x="-321" y="5" as="offset" />
          </mxGeometry>
        </mxCell>
        <mxCell id="pnJpJJiO39RtWvCnRvAp-18" value="" style="sketch=0;outlineConnect=0;fontColor=#232F3E;gradientColor=none;fillColor=#232F3D;strokeColor=none;dashed=0;verticalLabelPosition=bottom;verticalAlign=top;align=center;html=1;fontSize=12;fontStyle=0;aspect=fixed;pointerEvents=1;shape=mxgraph.aws4.magnifying_glass_2;" vertex="1" parent="pnJpJJiO39RtWvCnRvAp-8">
          <mxGeometry x="698.2739726027396" y="15" width="20" height="20" as="geometry" />
        </mxCell>
        <mxCell id="pnJpJJiO39RtWvCnRvAp-21" value="" style="rounded=1;whiteSpace=wrap;html=1;arcSize=7;strokeColor=#25B49D;movable=1;resizable=1;rotatable=1;deletable=1;editable=1;locked=0;connectable=1;" vertex="1" parent="pnJpJJiO39RtWvCnRvAp-2">
          <mxGeometry x="139" y="200" width="490" height="320" as="geometry" />
        </mxCell>
        <mxCell id="pnJpJJiO39RtWvCnRvAp-23" value="Tittle" style="text;html=1;align=center;verticalAlign=middle;whiteSpace=wrap;rounded=0;" vertex="1" parent="pnJpJJiO39RtWvCnRvAp-2">
          <mxGeometry x="139" y="210" width="90" height="30" as="geometry" />
        </mxCell>
        <mxCell id="pnJpJJiO39RtWvCnRvAp-24" value="Cost:" style="text;html=1;align=center;verticalAlign=middle;whiteSpace=wrap;rounded=0;" vertex="1" parent="pnJpJJiO39RtWvCnRvAp-2">
          <mxGeometry x="154" y="250" width="60" height="30" as="geometry" />
        </mxCell>
        <mxCell id="pnJpJJiO39RtWvCnRvAp-26" value="Contact Information:" style="text;html=1;align=center;verticalAlign=middle;whiteSpace=wrap;rounded=0;" vertex="1" parent="pnJpJJiO39RtWvCnRvAp-2">
          <mxGeometry x="160" y="290" width="130" height="30" as="geometry" />
        </mxCell>
        <mxCell id="pnJpJJiO39RtWvCnRvAp-27" value="Your name:" style="text;html=1;align=center;verticalAlign=middle;whiteSpace=wrap;rounded=0;" vertex="1" parent="pnJpJJiO39RtWvCnRvAp-2">
          <mxGeometry x="160" y="330" width="80" height="30" as="geometry" />
        </mxCell>
        <mxCell id="pnJpJJiO39RtWvCnRvAp-28" value="" style="rounded=1;whiteSpace=wrap;html=1;" vertex="1" parent="pnJpJJiO39RtWvCnRvAp-2">
          <mxGeometry x="214" y="210" width="196" height="30" as="geometry" />
        </mxCell>
        <mxCell id="pnJpJJiO39RtWvCnRvAp-29" value="" style="rounded=1;whiteSpace=wrap;html=1;" vertex="1" parent="pnJpJJiO39RtWvCnRvAp-2">
          <mxGeometry x="214" y="250" width="76" height="30" as="geometry" />
        </mxCell>
        <mxCell id="pnJpJJiO39RtWvCnRvAp-30" value="" style="rounded=1;whiteSpace=wrap;html=1;" vertex="1" parent="pnJpJJiO39RtWvCnRvAp-2">
          <mxGeometry x="290" y="290" width="120" height="30" as="geometry" />
        </mxCell>
        <mxCell id="c2YB9cGk07vD08uRdfCv-1" value="" style="rounded=1;whiteSpace=wrap;html=1;" vertex="1" parent="pnJpJJiO39RtWvCnRvAp-2">
          <mxGeometry x="240" y="330" width="120" height="30" as="geometry" />
        </mxCell>
        <mxCell id="c2YB9cGk07vD08uRdfCv-2" value="Upload photo:" style="text;html=1;align=center;verticalAlign=middle;whiteSpace=wrap;rounded=0;" vertex="1" parent="pnJpJJiO39RtWvCnRvAp-2">
          <mxGeometry x="170" y="370" width="80" height="30" as="geometry" />
        </mxCell>
        <mxCell id="pnJpJJiO39RtWvCnRvAp-25" value="Description:" style="text;html=1;align=center;verticalAlign=middle;whiteSpace=wrap;rounded=0;" vertex="1" parent="pnJpJJiO39RtWvCnRvAp-2">
          <mxGeometry x="170" y="410" width="60" height="30" as="geometry" />
        </mxCell>
        <mxCell id="pnJpJJiO39RtWvCnRvAp-31" value="" style="rounded=1;whiteSpace=wrap;html=1;arcSize=7;" vertex="1" parent="pnJpJJiO39RtWvCnRvAp-2">
          <mxGeometry x="240" y="410" width="360" height="90" as="geometry" />
        </mxCell>
        <mxCell id="pnJpJJiO39RtWvCnRvAp-19" value="&lt;font style=&quot;font-size: 29px;&quot;&gt;Desktop (1024 px&amp;nbsp;× 768 px)&lt;/font&gt;" style="text;html=1;align=center;verticalAlign=middle;whiteSpace=wrap;rounded=0;movable=0;resizable=0;rotatable=0;deletable=0;editable=0;locked=1;connectable=0;" vertex="1" parent="pnJpJJiO39RtWvCnRvAp-1">
          <mxGeometry x="219" y="20" width="390" height="30" as="geometry" />
        </mxCell>
        <mxCell id="pnJpJJiO39RtWvCnRvAp-20" value="&lt;font style=&quot;font-size: 29px;&quot;&gt;Mobile (768 px&amp;nbsp;× 1024 px)&lt;/font&gt;" style="text;html=1;align=center;verticalAlign=middle;whiteSpace=wrap;rounded=0;movable=0;resizable=0;rotatable=0;deletable=0;editable=0;locked=1;connectable=0;" vertex="1" parent="pnJpJJiO39RtWvCnRvAp-1">
          <mxGeometry x="1046" y="20" width="390" height="30" as="geometry" />
        </mxCell>
      </root>
    </mxGraphModel>
  </diagram>
  <diagram id="0Hcdv0V4r15ms4kan4cu" name="6 - Login page">
    <mxGraphModel dx="1869" dy="3333" grid="1" gridSize="10" guides="1" tooltips="1" connect="1" arrows="1" fold="1" page="1" pageScale="1" pageWidth="1920" pageHeight="1200" math="0" shadow="0">
      <root>
        <mxCell id="0" />
        <mxCell id="1" parent="0" />
        <mxCell id="wK1VenESwKNN6fM19RSH-1" value="" style="strokeWidth=1;shadow=0;dashed=0;align=center;html=1;shape=mxgraph.mockup.containers.browserWindow;rSize=0;strokeColor=#23445d;strokeColor2=#008cff;strokeColor3=#c4c4c4;mainText=,;recursiveResize=0;movable=1;resizable=1;rotatable=1;deletable=1;editable=1;locked=0;connectable=1;fillColor=#D9E1E8;" vertex="1" parent="1">
          <mxGeometry x="80" y="-2330" width="1030" height="768" as="geometry" />
        </mxCell>
        <mxCell id="wK1VenESwKNN6fM19RSH-2" value="Page 1" style="strokeWidth=1;shadow=0;dashed=0;align=center;html=1;shape=mxgraph.mockup.containers.anchor;fontSize=17;fontColor=#666666;align=left;whiteSpace=wrap;" vertex="1" parent="wK1VenESwKNN6fM19RSH-1">
          <mxGeometry x="60" y="12" width="110" height="26" as="geometry" />
        </mxCell>
        <mxCell id="wK1VenESwKNN6fM19RSH-3" value="https://www.draw.io" style="strokeWidth=1;shadow=0;dashed=0;align=center;html=1;shape=mxgraph.mockup.containers.anchor;rSize=0;fontSize=17;fontColor=#666666;align=left;" vertex="1" parent="wK1VenESwKNN6fM19RSH-1">
          <mxGeometry x="130" y="60" width="250" height="26" as="geometry" />
        </mxCell>
        <mxCell id="Vofz9_s2VqDGnAw7deby-1" value="Welcome to MANA Advertisement" style="text;html=1;align=center;verticalAlign=middle;whiteSpace=wrap;rounded=0;fontSize=30;fillColor=light-dark(#FFFFFF,#EDEDED);gradientColor=#2FE9E6;strokeColor=none;" vertex="1" parent="wK1VenESwKNN6fM19RSH-1">
          <mxGeometry y="110" width="1030" height="90" as="geometry" />
        </mxCell>
        <mxCell id="XF36KgP1flXrFpVQeeGA-1" value="&lt;span style=&quot;color: rgba(0, 0, 0, 0); font-family: monospace; font-size: 0px; text-align: start;&quot;&gt;%3CmxGraphModel%3E%3Croot%3E%3CmxCell%20id%3D%220%22%2F%3E%3CmxCell%20id%3D%221%22%20parent%3D%220%22%2F%3E%3CmxCell%20id%3D%222%22%20value%3D%22Welcome%20to%20MANA%20Advertisement%22%20style%3D%22text%3Bhtml%3D1%3Balign%3Dcenter%3BverticalAlign%3Dmiddle%3BwhiteSpace%3Dwrap%3Brounded%3D0%3BfontSize%3D30%3BfillColor%3Dlight-dark(%23FFFFFF%2C%23EDEDED)%3BgradientColor%3D%232FE9E6%3BstrokeColor%3Dnone%3B%22%20vertex%3D%221%22%20parent%3D%221%22%3E%3CmxGeometry%20x%3D%2280%22%20y%3D%22-2260%22%20width%3D%221030%22%20height%3D%2290%22%20as%3D%22geometry%22%2F%3E%3C%2FmxCell%3E%3C%2Froot%3E%3C%2FmxGraphModel%3E&lt;/span&gt;&lt;span style=&quot;color: rgba(0, 0, 0, 0); font-family: monospace; font-size: 0px; text-align: start;&quot;&gt;%3CmxGraphModel%3E%3Croot%3E%3CmxCell%20id%3D%220%22%2F%3E%3CmxCell%20id%3D%221%22%20parent%3D%220%22%2F%3E%3CmxCell%20id%3D%222%22%20value%3D%22Welcome%20to%20MANA%20Advertisement%22%20style%3D%22text%3Bhtml%3D1%3Balign%3Dcenter%3BverticalAlign%3Dmiddle%3BwhiteSpace%3Dwrap%3Brounded%3D0%3BfontSize%3D30%3BfillColor%3Dlight-dark(%23FFFFFF%2C%23EDEDED)%3BgradientColor%3D%232FE9E6%3BstrokeColor%3Dnone%3B%22%20vertex%3D%221%22%20parent%3D%221%22%3E%3CmxGeometry%20x%3D%2280%22%20y%3D%22-2260%22%20width%3D%221030%22%20height%3D%2290%22%20as%3D%22geometry%22%2F%3E%3C%2FmxCell%3E%3C%2Froot%3E%3C%2FmxGraphModel%3E&lt;/span&gt;" style="html=1;shadow=0;dashed=0;shape=mxgraph.bootstrap.rrect;rSize=5;fillColor=#ffffff;strokeColor=#999999;" vertex="1" parent="wK1VenESwKNN6fM19RSH-1">
          <mxGeometry x="90" y="280" width="300" height="345" as="geometry" />
        </mxCell>
        <mxCell id="XF36KgP1flXrFpVQeeGA-2" value="Username" style="fillColor=none;strokeColor=none;align=left;spacing=20;fontSize=14;" vertex="1" parent="XF36KgP1flXrFpVQeeGA-1">
          <mxGeometry width="220" height="40" relative="1" as="geometry">
            <mxPoint y="10" as="offset" />
          </mxGeometry>
        </mxCell>
        <mxCell id="XF36KgP1flXrFpVQeeGA-3" value="johnDoe1234" style="html=1;shadow=0;dashed=0;shape=mxgraph.bootstrap.rrect;rSize=5;fillColor=none;strokeColor=#999999;align=left;spacing=15;fontSize=14;fontColor=#6C767D;" vertex="1" parent="XF36KgP1flXrFpVQeeGA-1">
          <mxGeometry width="180" height="30" relative="1" as="geometry">
            <mxPoint x="20" y="50" as="offset" />
          </mxGeometry>
        </mxCell>
        <mxCell id="XF36KgP1flXrFpVQeeGA-4" value="Password" style="fillColor=none;strokeColor=none;align=left;spacing=20;fontSize=14;" vertex="1" parent="XF36KgP1flXrFpVQeeGA-1">
          <mxGeometry width="220" height="40" relative="1" as="geometry">
            <mxPoint y="90" as="offset" />
          </mxGeometry>
        </mxCell>
        <mxCell id="XF36KgP1flXrFpVQeeGA-5" value="Password" style="html=1;shadow=0;dashed=0;shape=mxgraph.bootstrap.rrect;rSize=5;fillColor=none;strokeColor=#999999;align=left;spacing=15;fontSize=14;fontColor=#6C767D;" vertex="1" parent="XF36KgP1flXrFpVQeeGA-1">
          <mxGeometry width="180" height="30" relative="1" as="geometry">
            <mxPoint x="20" y="130" as="offset" />
          </mxGeometry>
        </mxCell>
        <mxCell id="XF36KgP1flXrFpVQeeGA-7" value="Sign in" style="html=1;shadow=0;dashed=0;shape=mxgraph.bootstrap.rrect;rSize=5;fillColor=#25B49D;strokeColor=none;align=center;fontSize=14;fontColor=#FFFFFF;" vertex="1" parent="XF36KgP1flXrFpVQeeGA-1">
          <mxGeometry width="70" height="40" relative="1" as="geometry">
            <mxPoint x="20" y="210" as="offset" />
          </mxGeometry>
        </mxCell>
        <mxCell id="XF36KgP1flXrFpVQeeGA-8" value="" style="shape=line;strokeColor=#999999;perimeter=none;resizeWidth=1;" vertex="1" parent="XF36KgP1flXrFpVQeeGA-1">
          <mxGeometry width="300" height="10" relative="1" as="geometry">
            <mxPoint y="260" as="offset" />
          </mxGeometry>
        </mxCell>
        <mxCell id="XF36KgP1flXrFpVQeeGA-9" value="New around here? Register&lt;br&gt;&lt;div&gt;&lt;br&gt;&lt;/div&gt;" style="html=1;fillColor=none;strokeColor=none;align=left;spacing=20;fontSize=14;" vertex="1" parent="XF36KgP1flXrFpVQeeGA-1">
          <mxGeometry width="220" height="60" relative="1" as="geometry">
            <mxPoint y="275" as="offset" />
          </mxGeometry>
        </mxCell>
        <mxCell id="XF36KgP1flXrFpVQeeGA-10" value="&lt;h1 style=&quot;margin-top: 0px;&quot;&gt;&lt;span style=&quot;background-color: transparent; color: light-dark(rgb(0, 0, 0), rgb(255, 255, 255)); font-size: 19px; font-weight: normal;&quot;&gt;Create an account so you can enjoy all MANA Advertisement features such as making your own cars and houses advertisements...&lt;/span&gt;&lt;/h1&gt;" style="text;html=1;whiteSpace=wrap;overflow=hidden;rounded=0;fontSize=19;" vertex="1" parent="wK1VenESwKNN6fM19RSH-1">
          <mxGeometry x="480" y="280" width="370" height="180" as="geometry" />
        </mxCell>
        <mxCell id="XF36KgP1flXrFpVQeeGA-11" value="" style="rounded=0;whiteSpace=wrap;html=1;fillColor=#C0FAFD;strokeColor=#0e8088;" vertex="1" parent="wK1VenESwKNN6fM19RSH-1">
          <mxGeometry y="708" width="1030" height="60" as="geometry" />
        </mxCell>
        <mxCell id="XF36KgP1flXrFpVQeeGA-12" value="All Rights Reserved" style="text;html=1;align=center;verticalAlign=middle;whiteSpace=wrap;rounded=0;fontSize=15;" vertex="1" parent="wK1VenESwKNN6fM19RSH-1">
          <mxGeometry x="443.5" y="723" width="141" height="30" as="geometry" />
        </mxCell>
        <mxCell id="gWAxD23P1_8uBFKJNUyL-1" value="" style="verticalLabelPosition=bottom;verticalAlign=top;html=1;shadow=0;dashed=0;strokeWidth=1;shape=mxgraph.android.phone2;strokeColor=#23445d;fillColor=#bac8d3;movable=0;resizable=0;rotatable=0;deletable=0;editable=0;locked=1;connectable=0;" vertex="1" parent="1">
          <mxGeometry x="1140" y="-2360" width="768" height="1024" as="geometry" />
        </mxCell>
        <mxCell id="gWAxD23P1_8uBFKJNUyL-2" value="" style="rounded=0;whiteSpace=wrap;html=1;" vertex="1" parent="1">
          <mxGeometry x="1170" y="-2270" width="710" height="840" as="geometry" />
        </mxCell>
        <mxCell id="IdwDFqcHq3gLxPIaOqxX-1" value="" style="strokeWidth=1;shadow=0;dashed=0;align=center;html=1;shape=mxgraph.mockup.containers.browserWindow;rSize=0;strokeColor=#666666;strokeColor2=#008cff;strokeColor3=#c4c4c4;mainText=,;recursiveResize=0;fillColor=light-dark(#d9e1e8, #ededed);gradientColor=default;" vertex="1" parent="1">
          <mxGeometry x="1170" y="-2270" width="710" height="840" as="geometry" />
        </mxCell>
        <mxCell id="IdwDFqcHq3gLxPIaOqxX-2" value="Page 1" style="strokeWidth=1;shadow=0;dashed=0;align=center;html=1;shape=mxgraph.mockup.containers.anchor;fontSize=17;fontColor=#666666;align=left;whiteSpace=wrap;" vertex="1" parent="IdwDFqcHq3gLxPIaOqxX-1">
          <mxGeometry x="60" y="12" width="110" height="26" as="geometry" />
        </mxCell>
        <mxCell id="IdwDFqcHq3gLxPIaOqxX-3" value="https://www.draw.io" style="strokeWidth=1;shadow=0;dashed=0;align=center;html=1;shape=mxgraph.mockup.containers.anchor;rSize=0;fontSize=17;fontColor=#666666;align=left;" vertex="1" parent="IdwDFqcHq3gLxPIaOqxX-1">
          <mxGeometry x="130" y="60" width="250" height="26" as="geometry" />
        </mxCell>
        <mxCell id="gWAxD23P1_8uBFKJNUyL-3" value="Welcome to MANA Advertisement" style="text;html=1;align=center;verticalAlign=middle;whiteSpace=wrap;rounded=0;fontSize=30;fillColor=light-dark(#FFFFFF,#EDEDED);gradientColor=#2FE9E6;strokeColor=none;" vertex="1" parent="IdwDFqcHq3gLxPIaOqxX-1">
          <mxGeometry y="110" width="710" height="90" as="geometry" />
        </mxCell>
        <mxCell id="IdwDFqcHq3gLxPIaOqxX-12" value="&lt;h1 style=&quot;margin-top: 0px;&quot;&gt;&lt;span style=&quot;background-color: transparent; color: light-dark(rgb(0, 0, 0), rgb(255, 255, 255)); font-size: 19px; font-weight: normal;&quot;&gt;Create an account so you can enjoy all MANA Advertisement features such as making your own cars and houses advertisements...&lt;/span&gt;&lt;/h1&gt;" style="text;html=1;whiteSpace=wrap;overflow=hidden;rounded=0;fontSize=19;align=center;" vertex="1" parent="IdwDFqcHq3gLxPIaOqxX-1">
          <mxGeometry x="60" y="200" width="610" height="180" as="geometry" />
        </mxCell>
        <mxCell id="IdwDFqcHq3gLxPIaOqxX-13" value="&lt;span style=&quot;color: rgba(0, 0, 0, 0); font-family: monospace; font-size: 0px; text-align: start;&quot;&gt;%3CmxGraphModel%3E%3Croot%3E%3CmxCell%20id%3D%220%22%2F%3E%3CmxCell%20id%3D%221%22%20parent%3D%220%22%2F%3E%3CmxCell%20id%3D%222%22%20value%3D%22Welcome%20to%20MANA%20Advertisement%22%20style%3D%22text%3Bhtml%3D1%3Balign%3Dcenter%3BverticalAlign%3Dmiddle%3BwhiteSpace%3Dwrap%3Brounded%3D0%3BfontSize%3D30%3BfillColor%3Dlight-dark(%23FFFFFF%2C%23EDEDED)%3BgradientColor%3D%232FE9E6%3BstrokeColor%3Dnone%3B%22%20vertex%3D%221%22%20parent%3D%221%22%3E%3CmxGeometry%20x%3D%2280%22%20y%3D%22-2260%22%20width%3D%221030%22%20height%3D%2290%22%20as%3D%22geometry%22%2F%3E%3C%2FmxCell%3E%3C%2Froot%3E%3C%2FmxGraphModel%3E&lt;/span&gt;&lt;span style=&quot;color: rgba(0, 0, 0, 0); font-family: monospace; font-size: 0px; text-align: start;&quot;&gt;%3CmxGraphModel%3E%3Croot%3E%3CmxCell%20id%3D%220%22%2F%3E%3CmxCell%20id%3D%221%22%20parent%3D%220%22%2F%3E%3CmxCell%20id%3D%222%22%20value%3D%22Welcome%20to%20MANA%20Advertisement%22%20style%3D%22text%3Bhtml%3D1%3Balign%3Dcenter%3BverticalAlign%3Dmiddle%3BwhiteSpace%3Dwrap%3Brounded%3D0%3BfontSize%3D30%3BfillColor%3Dlight-dark(%23FFFFFF%2C%23EDEDED)%3BgradientColor%3D%232FE9E6%3BstrokeColor%3Dnone%3B%22%20vertex%3D%221%22%20parent%3D%221%22%3E%3CmxGeometry%20x%3D%2280%22%20y%3D%22-2260%22%20width%3D%221030%22%20height%3D%2290%22%20as%3D%22geometry%22%2F%3E%3C%2FmxCell%3E%3C%2Froot%3E%3C%2FmxGraphModel%3E&lt;/span&gt;" style="html=1;shadow=0;dashed=0;shape=mxgraph.bootstrap.rrect;rSize=5;fillColor=#ffffff;strokeColor=#999999;" vertex="1" parent="IdwDFqcHq3gLxPIaOqxX-1">
          <mxGeometry x="110" y="340" width="395" height="420" as="geometry" />
        </mxCell>
        <mxCell id="IdwDFqcHq3gLxPIaOqxX-14" value="Username" style="fillColor=none;strokeColor=none;align=left;spacing=20;fontSize=14;" vertex="1" parent="IdwDFqcHq3gLxPIaOqxX-13">
          <mxGeometry width="220" height="40" relative="1" as="geometry">
            <mxPoint y="10" as="offset" />
          </mxGeometry>
        </mxCell>
        <mxCell id="IdwDFqcHq3gLxPIaOqxX-15" value="johnDoe1234" style="html=1;shadow=0;dashed=0;shape=mxgraph.bootstrap.rrect;rSize=5;fillColor=none;strokeColor=#999999;align=left;spacing=15;fontSize=14;fontColor=#6C767D;" vertex="1" parent="IdwDFqcHq3gLxPIaOqxX-13">
          <mxGeometry width="180" height="30" relative="1" as="geometry">
            <mxPoint x="20" y="50" as="offset" />
          </mxGeometry>
        </mxCell>
        <mxCell id="IdwDFqcHq3gLxPIaOqxX-16" value="Password" style="fillColor=none;strokeColor=none;align=left;spacing=20;fontSize=14;" vertex="1" parent="IdwDFqcHq3gLxPIaOqxX-13">
          <mxGeometry width="220" height="40" relative="1" as="geometry">
            <mxPoint y="90" as="offset" />
          </mxGeometry>
        </mxCell>
        <mxCell id="IdwDFqcHq3gLxPIaOqxX-17" value="Password" style="html=1;shadow=0;dashed=0;shape=mxgraph.bootstrap.rrect;rSize=5;fillColor=none;strokeColor=#999999;align=left;spacing=15;fontSize=14;fontColor=#6C767D;" vertex="1" parent="IdwDFqcHq3gLxPIaOqxX-13">
          <mxGeometry width="180" height="30" relative="1" as="geometry">
            <mxPoint x="20" y="130" as="offset" />
          </mxGeometry>
        </mxCell>
        <mxCell id="IdwDFqcHq3gLxPIaOqxX-18" value="Sign in" style="html=1;shadow=0;dashed=0;shape=mxgraph.bootstrap.rrect;rSize=5;fillColor=#25B49D;strokeColor=none;align=center;fontSize=14;fontColor=#FFFFFF;" vertex="1" parent="IdwDFqcHq3gLxPIaOqxX-13">
          <mxGeometry width="70" height="40" relative="1" as="geometry">
            <mxPoint x="20" y="210" as="offset" />
          </mxGeometry>
        </mxCell>
        <mxCell id="IdwDFqcHq3gLxPIaOqxX-19" value="" style="shape=line;strokeColor=#999999;perimeter=none;resizeWidth=1;" vertex="1" parent="IdwDFqcHq3gLxPIaOqxX-13">
          <mxGeometry width="395" height="10" relative="1" as="geometry">
            <mxPoint y="260" as="offset" />
          </mxGeometry>
        </mxCell>
        <mxCell id="IdwDFqcHq3gLxPIaOqxX-20" value="New around here? Register&lt;div&gt;&lt;br&gt;&lt;/div&gt;" style="html=1;fillColor=none;strokeColor=none;align=left;spacing=20;fontSize=14;" vertex="1" parent="IdwDFqcHq3gLxPIaOqxX-13">
          <mxGeometry width="220" height="60" relative="1" as="geometry">
            <mxPoint y="275" as="offset" />
          </mxGeometry>
        </mxCell>
        <mxCell id="IdwDFqcHq3gLxPIaOqxX-21" value="" style="rounded=0;whiteSpace=wrap;html=1;fillColor=#C0FAFD;strokeColor=#0e8088;" vertex="1" parent="IdwDFqcHq3gLxPIaOqxX-1">
          <mxGeometry y="780" width="710" height="60" as="geometry" />
        </mxCell>
        <mxCell id="IdwDFqcHq3gLxPIaOqxX-22" value="&lt;font style=&quot;font-size: 15px;&quot;&gt;All Rights Reserved&lt;/font&gt;" style="text;html=1;align=center;verticalAlign=middle;whiteSpace=wrap;rounded=0;" vertex="1" parent="IdwDFqcHq3gLxPIaOqxX-1">
          <mxGeometry x="285" y="795" width="160" height="30" as="geometry" />
        </mxCell>
      </root>
    </mxGraphModel>
  </diagram>
  <diagram name="7 - User Account page" id="iYX8mJCVK-POh9AS1_Mu">
    <mxGraphModel dx="1869" dy="3333" grid="1" gridSize="10" guides="1" tooltips="1" connect="1" arrows="1" fold="1" page="1" pageScale="1" pageWidth="1920" pageHeight="1200" math="0" shadow="0">
      <root>
        <mxCell id="NY3J_dHWFOv6n6rX13rc-0" />
        <mxCell id="NY3J_dHWFOv6n6rX13rc-1" parent="NY3J_dHWFOv6n6rX13rc-0" />
        <mxCell id="NY3J_dHWFOv6n6rX13rc-2" value="" style="strokeWidth=1;shadow=0;dashed=0;align=center;html=1;shape=mxgraph.mockup.containers.browserWindow;rSize=0;strokeColor=#23445d;strokeColor2=#008cff;strokeColor3=#c4c4c4;mainText=,;recursiveResize=0;movable=1;resizable=1;rotatable=1;deletable=1;editable=1;locked=0;connectable=1;fillColor=#D9E1E8;" vertex="1" parent="NY3J_dHWFOv6n6rX13rc-1">
          <mxGeometry x="20" y="-2270" width="1030" height="768" as="geometry" />
        </mxCell>
        <mxCell id="NY3J_dHWFOv6n6rX13rc-3" value="Page 1" style="strokeWidth=1;shadow=0;dashed=0;align=center;html=1;shape=mxgraph.mockup.containers.anchor;fontSize=17;fontColor=#666666;align=left;whiteSpace=wrap;" vertex="1" parent="NY3J_dHWFOv6n6rX13rc-2">
          <mxGeometry x="60" y="12" width="110" height="26" as="geometry" />
        </mxCell>
        <mxCell id="NY3J_dHWFOv6n6rX13rc-4" value="https://www.draw.io" style="strokeWidth=1;shadow=0;dashed=0;align=center;html=1;shape=mxgraph.mockup.containers.anchor;rSize=0;fontSize=17;fontColor=#666666;align=left;" vertex="1" parent="NY3J_dHWFOv6n6rX13rc-2">
          <mxGeometry x="130" y="60" width="250" height="26" as="geometry" />
        </mxCell>
        <mxCell id="NY3J_dHWFOv6n6rX13rc-5" value="Welcome Back!" style="text;html=1;align=center;verticalAlign=middle;whiteSpace=wrap;rounded=0;fontSize=30;fillColor=light-dark(#FFFFFF,#EDEDED);gradientColor=#2FE9E6;strokeColor=none;" vertex="1" parent="NY3J_dHWFOv6n6rX13rc-2">
          <mxGeometry x="-1" y="110" width="1030" height="90" as="geometry" />
        </mxCell>
        <mxCell id="NY3J_dHWFOv6n6rX13rc-6" value="&lt;h1 style=&quot;margin-top: 0px;&quot;&gt;&lt;span style=&quot;background-color: transparent; color: light-dark(rgb(0, 0, 0), rgb(255, 255, 255));&quot;&gt;&lt;font style=&quot;font-size: 25px;&quot;&gt;My Adverts:&lt;/font&gt;&lt;/span&gt;&lt;/h1&gt;" style="text;html=1;whiteSpace=wrap;overflow=hidden;rounded=0;fontSize=19;" vertex="1" parent="NY3J_dHWFOv6n6rX13rc-2">
          <mxGeometry x="30" y="250" width="260" height="100" as="geometry" />
        </mxCell>
        <mxCell id="NY3J_dHWFOv6n6rX13rc-7" value="" style="rounded=0;whiteSpace=wrap;html=1;fillColor=#C0FAFD;strokeColor=#0e8088;" vertex="1" parent="NY3J_dHWFOv6n6rX13rc-2">
          <mxGeometry y="708" width="1030" height="60" as="geometry" />
        </mxCell>
        <mxCell id="NY3J_dHWFOv6n6rX13rc-8" value="All Rights Reserved" style="text;html=1;align=center;verticalAlign=middle;whiteSpace=wrap;rounded=0;fontSize=15;" vertex="1" parent="NY3J_dHWFOv6n6rX13rc-2">
          <mxGeometry x="443.5" y="723" width="141" height="30" as="geometry" />
        </mxCell>
        <mxCell id="fxuAK8ps9XpTMNXrCqer-0" value="" style="rounded=0;whiteSpace=wrap;html=1;fillColor=none;" vertex="1" parent="NY3J_dHWFOv6n6rX13rc-2">
          <mxGeometry x="30" y="320" width="590" height="170" as="geometry" />
        </mxCell>
        <mxCell id="fxuAK8ps9XpTMNXrCqer-1" value="&lt;h1 style=&quot;margin-top: 0px;&quot;&gt;&lt;span style=&quot;background-color: transparent; font-weight: normal;&quot;&gt;&lt;font style=&quot;font-size: 21px; color: light-dark(rgb(153, 0, 153), rgb(255, 255, 255));&quot;&gt;&lt;u style=&quot;&quot;&gt;Create New Advert&lt;/u&gt;&lt;/font&gt;&lt;/span&gt;&lt;/h1&gt;" style="text;html=1;whiteSpace=wrap;overflow=hidden;rounded=0;fontSize=19;" vertex="1" parent="NY3J_dHWFOv6n6rX13rc-2">
          <mxGeometry x="390" y="190" width="310" height="100" as="geometry" />
        </mxCell>
        <mxCell id="fxuAK8ps9XpTMNXrCqer-2" value="" style="rounded=0;whiteSpace=wrap;html=1;fillColor=none;" vertex="1" parent="NY3J_dHWFOv6n6rX13rc-2">
          <mxGeometry x="30" y="510" width="590" height="170" as="geometry" />
        </mxCell>
        <mxCell id="fxuAK8ps9XpTMNXrCqer-3" value="" style="verticalLabelPosition=bottom;shadow=0;dashed=0;align=center;html=1;verticalAlign=top;strokeWidth=1;shape=mxgraph.mockup.graphics.simpleIcon;strokeColor=#999999;" vertex="1" parent="NY3J_dHWFOv6n6rX13rc-2">
          <mxGeometry x="50" y="340" width="130" height="130" as="geometry" />
        </mxCell>
        <mxCell id="fxuAK8ps9XpTMNXrCqer-4" value="" style="verticalLabelPosition=bottom;shadow=0;dashed=0;align=center;html=1;verticalAlign=top;strokeWidth=1;shape=mxgraph.mockup.graphics.simpleIcon;strokeColor=#999999;" vertex="1" parent="NY3J_dHWFOv6n6rX13rc-2">
          <mxGeometry x="50" y="530" width="130" height="130" as="geometry" />
        </mxCell>
        <mxCell id="fxuAK8ps9XpTMNXrCqer-5" value="Tittle" style="text;html=1;align=center;verticalAlign=middle;whiteSpace=wrap;rounded=0;fontSize=17;" vertex="1" parent="NY3J_dHWFOv6n6rX13rc-2">
          <mxGeometry x="200" y="320" width="60" height="60" as="geometry" />
        </mxCell>
        <mxCell id="fxuAK8ps9XpTMNXrCqer-7" value="&lt;u&gt;Modify&lt;/u&gt;" style="text;html=1;align=center;verticalAlign=middle;whiteSpace=wrap;rounded=0;fontSize=17;fontColor=#0000CC;" vertex="1" parent="NY3J_dHWFOv6n6rX13rc-2">
          <mxGeometry x="210" y="360" width="60" height="60" as="geometry" />
        </mxCell>
        <mxCell id="fxuAK8ps9XpTMNXrCqer-6" value="&lt;u&gt;Delete&lt;/u&gt;" style="text;html=1;align=center;verticalAlign=middle;whiteSpace=wrap;rounded=0;fontSize=17;fontColor=#CC0000;" vertex="1" parent="NY3J_dHWFOv6n6rX13rc-2">
          <mxGeometry x="210" y="400" width="60" height="70" as="geometry" />
        </mxCell>
        <mxCell id="fxuAK8ps9XpTMNXrCqer-8" value="&lt;u&gt;Modify&lt;/u&gt;" style="text;html=1;align=center;verticalAlign=middle;whiteSpace=wrap;rounded=0;fontSize=17;fontColor=#0000CC;" vertex="1" parent="NY3J_dHWFOv6n6rX13rc-2">
          <mxGeometry x="210" y="550" width="60" height="60" as="geometry" />
        </mxCell>
        <mxCell id="fxuAK8ps9XpTMNXrCqer-9" value="&lt;u&gt;Delete&lt;/u&gt;" style="text;html=1;align=center;verticalAlign=middle;whiteSpace=wrap;rounded=0;fontSize=17;fontColor=#CC0000;" vertex="1" parent="NY3J_dHWFOv6n6rX13rc-2">
          <mxGeometry x="210" y="590" width="60" height="70" as="geometry" />
        </mxCell>
        <mxCell id="fxuAK8ps9XpTMNXrCqer-10" value="Tittle" style="text;html=1;align=center;verticalAlign=middle;whiteSpace=wrap;rounded=0;fontSize=17;" vertex="1" parent="NY3J_dHWFOv6n6rX13rc-2">
          <mxGeometry x="200" y="510" width="60" height="60" as="geometry" />
        </mxCell>
      </root>
    </mxGraphModel>
  </diagram>
  <diagram name="8 - Register page" id="niKcVPC8_12k2rZoDFDp">
    <mxGraphModel dx="2056" dy="3426" grid="1" gridSize="10" guides="1" tooltips="1" connect="1" arrows="1" fold="1" page="1" pageScale="1" pageWidth="1920" pageHeight="1200" math="0" shadow="0">
      <root>
        <mxCell id="0coull1I_P3dmNZWmFLt-0" />
        <mxCell id="0coull1I_P3dmNZWmFLt-1" parent="0coull1I_P3dmNZWmFLt-0" />
        <mxCell id="0coull1I_P3dmNZWmFLt-2" value="" style="strokeWidth=1;shadow=0;dashed=0;align=center;html=1;shape=mxgraph.mockup.containers.browserWindow;rSize=0;strokeColor=#23445d;strokeColor2=#008cff;strokeColor3=#c4c4c4;mainText=,;recursiveResize=0;movable=0;resizable=0;rotatable=0;deletable=0;editable=0;locked=1;connectable=0;fillColor=#D9E1E8;" vertex="1" parent="0coull1I_P3dmNZWmFLt-1">
          <mxGeometry x="30" y="-2270" width="1030" height="768" as="geometry" />
        </mxCell>
        <mxCell id="0coull1I_P3dmNZWmFLt-3" value="Page 1" style="strokeWidth=1;shadow=0;dashed=0;align=center;html=1;shape=mxgraph.mockup.containers.anchor;fontSize=17;fontColor=#666666;align=left;whiteSpace=wrap;" vertex="1" parent="0coull1I_P3dmNZWmFLt-2">
          <mxGeometry x="60" y="12" width="110" height="26" as="geometry" />
        </mxCell>
        <mxCell id="0coull1I_P3dmNZWmFLt-4" value="https://www.draw.io" style="strokeWidth=1;shadow=0;dashed=0;align=center;html=1;shape=mxgraph.mockup.containers.anchor;rSize=0;fontSize=17;fontColor=#666666;align=left;" vertex="1" parent="0coull1I_P3dmNZWmFLt-2">
          <mxGeometry x="130" y="60" width="250" height="26" as="geometry" />
        </mxCell>
        <mxCell id="0coull1I_P3dmNZWmFLt-5" value="Welcome to MANA Advertisement" style="text;html=1;align=center;verticalAlign=middle;whiteSpace=wrap;rounded=0;fontSize=30;fillColor=light-dark(#FFFFFF,#EDEDED);gradientColor=#2FE9E6;strokeColor=none;" vertex="1" parent="0coull1I_P3dmNZWmFLt-2">
          <mxGeometry x="-1" y="110" width="1030" height="90" as="geometry" />
        </mxCell>
        <mxCell id="0coull1I_P3dmNZWmFLt-14" value="&lt;h1 style=&quot;margin-top: 0px;&quot;&gt;&lt;span style=&quot;background-color: transparent; color: light-dark(rgb(0, 0, 0), rgb(255, 255, 255)); font-weight: normal;&quot;&gt;&lt;font style=&quot;font-size: 21px;&quot;&gt;Please provide your personal information&lt;/font&gt;&lt;/span&gt;&lt;/h1&gt;" style="text;html=1;whiteSpace=wrap;overflow=hidden;rounded=0;fontSize=19;" vertex="1" parent="0coull1I_P3dmNZWmFLt-2">
          <mxGeometry x="310" y="190" width="440" height="100" as="geometry" />
        </mxCell>
        <mxCell id="0coull1I_P3dmNZWmFLt-15" value="" style="rounded=0;whiteSpace=wrap;html=1;fillColor=#C0FAFD;strokeColor=#0e8088;" vertex="1" parent="0coull1I_P3dmNZWmFLt-2">
          <mxGeometry y="708" width="1030" height="60" as="geometry" />
        </mxCell>
        <mxCell id="0coull1I_P3dmNZWmFLt-16" value="All Rights Reserved" style="text;html=1;align=center;verticalAlign=middle;whiteSpace=wrap;rounded=0;fontSize=15;" vertex="1" parent="0coull1I_P3dmNZWmFLt-2">
          <mxGeometry x="443.5" y="723" width="141" height="30" as="geometry" />
        </mxCell>
        <mxCell id="9fniIHxEWHEHfs4vZVf6-2" value="" style="rounded=1;whiteSpace=wrap;html=1;arcSize=5;" vertex="1" parent="0coull1I_P3dmNZWmFLt-2">
          <mxGeometry x="310" y="280" width="380" height="415" as="geometry" />
        </mxCell>
        <mxCell id="0coull1I_P3dmNZWmFLt-17" value="" style="verticalLabelPosition=bottom;verticalAlign=top;html=1;shadow=0;dashed=0;strokeWidth=1;shape=mxgraph.android.phone2;strokeColor=#23445d;fillColor=#bac8d3;movable=0;resizable=0;rotatable=0;deletable=0;editable=0;locked=1;connectable=0;" vertex="1" parent="0coull1I_P3dmNZWmFLt-1">
          <mxGeometry x="1140" y="-2360" width="768" height="1024" as="geometry" />
        </mxCell>
        <mxCell id="0coull1I_P3dmNZWmFLt-18" value="" style="rounded=0;whiteSpace=wrap;html=1;" vertex="1" parent="0coull1I_P3dmNZWmFLt-1">
          <mxGeometry x="1170" y="-2270" width="710" height="840" as="geometry" />
        </mxCell>
        <mxCell id="0coull1I_P3dmNZWmFLt-19" value="" style="strokeWidth=1;shadow=0;dashed=0;align=center;html=1;shape=mxgraph.mockup.containers.browserWindow;rSize=0;strokeColor=#666666;strokeColor2=#008cff;strokeColor3=#c4c4c4;mainText=,;recursiveResize=0;fillColor=light-dark(#d9e1e8, #ededed);gradientColor=default;movable=0;resizable=0;rotatable=0;deletable=0;editable=0;locked=1;connectable=0;" vertex="1" parent="0coull1I_P3dmNZWmFLt-1">
          <mxGeometry x="1170" y="-2270" width="710" height="840" as="geometry" />
        </mxCell>
        <mxCell id="0coull1I_P3dmNZWmFLt-20" value="Page 1" style="strokeWidth=1;shadow=0;dashed=0;align=center;html=1;shape=mxgraph.mockup.containers.anchor;fontSize=17;fontColor=#666666;align=left;whiteSpace=wrap;" vertex="1" parent="0coull1I_P3dmNZWmFLt-19">
          <mxGeometry x="60" y="12" width="110" height="26" as="geometry" />
        </mxCell>
        <mxCell id="0coull1I_P3dmNZWmFLt-21" value="https://www.draw.io" style="strokeWidth=1;shadow=0;dashed=0;align=center;html=1;shape=mxgraph.mockup.containers.anchor;rSize=0;fontSize=17;fontColor=#666666;align=left;" vertex="1" parent="0coull1I_P3dmNZWmFLt-19">
          <mxGeometry x="130" y="60" width="250" height="26" as="geometry" />
        </mxCell>
        <mxCell id="0coull1I_P3dmNZWmFLt-22" value="Welcome to MANA Advertisement" style="text;html=1;align=center;verticalAlign=middle;whiteSpace=wrap;rounded=0;fontSize=30;fillColor=light-dark(#FFFFFF,#EDEDED);gradientColor=#2FE9E6;strokeColor=none;" vertex="1" parent="0coull1I_P3dmNZWmFLt-19">
          <mxGeometry y="110" width="710" height="90" as="geometry" />
        </mxCell>
        <mxCell id="0coull1I_P3dmNZWmFLt-32" value="" style="rounded=0;whiteSpace=wrap;html=1;fillColor=#C0FAFD;strokeColor=#0e8088;" vertex="1" parent="0coull1I_P3dmNZWmFLt-19">
          <mxGeometry y="780" width="710" height="60" as="geometry" />
        </mxCell>
        <mxCell id="0coull1I_P3dmNZWmFLt-33" value="&lt;font style=&quot;font-size: 15px;&quot;&gt;All Rights Reserved&lt;/font&gt;" style="text;html=1;align=center;verticalAlign=middle;whiteSpace=wrap;rounded=0;" vertex="1" parent="0coull1I_P3dmNZWmFLt-19">
          <mxGeometry x="285" y="795" width="160" height="30" as="geometry" />
        </mxCell>
        <mxCell id="UAWaqQSH7OZfUrX55TEK-35" value="" style="group" vertex="1" connectable="0" parent="0coull1I_P3dmNZWmFLt-19">
          <mxGeometry x="110" y="290" width="500" height="460" as="geometry" />
        </mxCell>
        <mxCell id="UAWaqQSH7OZfUrX55TEK-24" value="" style="rounded=1;whiteSpace=wrap;html=1;arcSize=5;" vertex="1" parent="UAWaqQSH7OZfUrX55TEK-35">
          <mxGeometry width="500.0000000000001" height="460" as="geometry" />
        </mxCell>
        <mxCell id="UAWaqQSH7OZfUrX55TEK-25" value="" style="rounded=1;whiteSpace=wrap;html=1;" vertex="1" parent="UAWaqQSH7OZfUrX55TEK-35">
          <mxGeometry x="39.47368421052632" y="44.33734939759036" width="289.47368421052636" height="44.33734939759036" as="geometry" />
        </mxCell>
        <mxCell id="UAWaqQSH7OZfUrX55TEK-26" value="" style="rounded=1;whiteSpace=wrap;html=1;" vertex="1" parent="UAWaqQSH7OZfUrX55TEK-35">
          <mxGeometry x="39.47368421052632" y="121.92771084337349" width="289.47368421052636" height="44.33734939759036" as="geometry" />
        </mxCell>
        <mxCell id="UAWaqQSH7OZfUrX55TEK-27" value="" style="rounded=1;whiteSpace=wrap;html=1;" vertex="1" parent="UAWaqQSH7OZfUrX55TEK-35">
          <mxGeometry x="39.47368421052632" y="196.74698795180723" width="289.47368421052636" height="44.33734939759036" as="geometry" />
        </mxCell>
        <mxCell id="UAWaqQSH7OZfUrX55TEK-28" value="" style="rounded=1;whiteSpace=wrap;html=1;" vertex="1" parent="UAWaqQSH7OZfUrX55TEK-35">
          <mxGeometry x="39.47368421052632" y="277.10843373493975" width="289.47368421052636" height="44.33734939759036" as="geometry" />
        </mxCell>
        <mxCell id="UAWaqQSH7OZfUrX55TEK-29" value="&lt;font style=&quot;font-size: 16px;&quot;&gt;Name&lt;/font&gt;" style="text;html=1;align=center;verticalAlign=middle;whiteSpace=wrap;rounded=0;" vertex="1" parent="UAWaqQSH7OZfUrX55TEK-35">
          <mxGeometry x="39.47368421052632" y="11.08433734939759" width="78.94736842105264" height="33.25301204819277" as="geometry" />
        </mxCell>
        <mxCell id="UAWaqQSH7OZfUrX55TEK-30" value="&lt;font style=&quot;font-size: 16px;&quot;&gt;Last Name&lt;/font&gt;" style="text;html=1;align=center;verticalAlign=middle;whiteSpace=wrap;rounded=0;" vertex="1" parent="UAWaqQSH7OZfUrX55TEK-35">
          <mxGeometry x="39.47368421052632" y="88.67469879518072" width="118.42105263157896" height="33.25301204819277" as="geometry" />
        </mxCell>
        <mxCell id="UAWaqQSH7OZfUrX55TEK-31" value="&lt;font style=&quot;font-size: 16px;&quot;&gt;Date of Birth&lt;/font&gt;" style="text;html=1;align=left;verticalAlign=middle;whiteSpace=wrap;rounded=0;" vertex="1" parent="UAWaqQSH7OZfUrX55TEK-35">
          <mxGeometry x="39.47368421052632" y="163.49397590361446" width="197.36842105263162" height="33.25301204819277" as="geometry" />
        </mxCell>
        <mxCell id="UAWaqQSH7OZfUrX55TEK-32" value="&lt;font style=&quot;font-size: 16px;&quot;&gt;Username&lt;/font&gt;" style="text;html=1;align=center;verticalAlign=middle;whiteSpace=wrap;rounded=0;" vertex="1" parent="UAWaqQSH7OZfUrX55TEK-35">
          <mxGeometry x="39.47368421052632" y="241.0843373493976" width="118.42105263157896" height="33.25301204819277" as="geometry" />
        </mxCell>
        <mxCell id="UAWaqQSH7OZfUrX55TEK-33" value="" style="rounded=1;whiteSpace=wrap;html=1;" vertex="1" parent="UAWaqQSH7OZfUrX55TEK-35">
          <mxGeometry x="39.47368421052632" y="354.69879518072287" width="289.47368421052636" height="44.33734939759036" as="geometry" />
        </mxCell>
        <mxCell id="UAWaqQSH7OZfUrX55TEK-34" value="&lt;font style=&quot;font-size: 16px;&quot;&gt;Password&lt;/font&gt;" style="text;html=1;align=center;verticalAlign=middle;whiteSpace=wrap;rounded=0;" vertex="1" parent="UAWaqQSH7OZfUrX55TEK-35">
          <mxGeometry x="39.47368421052632" y="321.44578313253015" width="118.42105263157896" height="33.25301204819277" as="geometry" />
        </mxCell>
        <mxCell id="ACXpsUNA7UYPQ4bamraa-0" value="&lt;h1 style=&quot;margin-top: 0px;&quot;&gt;&lt;span style=&quot;background-color: transparent; color: light-dark(rgb(0, 0, 0), rgb(255, 255, 255)); font-weight: normal;&quot;&gt;&lt;font style=&quot;font-size: 21px;&quot;&gt;Please provide your personal information&lt;/font&gt;&lt;/span&gt;&lt;/h1&gt;" style="text;html=1;whiteSpace=wrap;overflow=hidden;rounded=0;fontSize=19;" vertex="1" parent="0coull1I_P3dmNZWmFLt-19">
          <mxGeometry x="135" y="210" width="440" height="100" as="geometry" />
        </mxCell>
        <mxCell id="UAWaqQSH7OZfUrX55TEK-0" value="" style="rounded=1;whiteSpace=wrap;html=1;" vertex="1" parent="0coull1I_P3dmNZWmFLt-1">
          <mxGeometry x="370" y="-1950" width="220" height="40" as="geometry" />
        </mxCell>
        <mxCell id="UAWaqQSH7OZfUrX55TEK-1" value="" style="rounded=1;whiteSpace=wrap;html=1;" vertex="1" parent="0coull1I_P3dmNZWmFLt-1">
          <mxGeometry x="370" y="-1880" width="220" height="40" as="geometry" />
        </mxCell>
        <mxCell id="UAWaqQSH7OZfUrX55TEK-2" value="" style="rounded=1;whiteSpace=wrap;html=1;" vertex="1" parent="0coull1I_P3dmNZWmFLt-1">
          <mxGeometry x="370" y="-1812.5" width="220" height="40" as="geometry" />
        </mxCell>
        <mxCell id="UAWaqQSH7OZfUrX55TEK-3" value="" style="rounded=1;whiteSpace=wrap;html=1;" vertex="1" parent="0coull1I_P3dmNZWmFLt-1">
          <mxGeometry x="370" y="-1740" width="220" height="40" as="geometry" />
        </mxCell>
        <mxCell id="UAWaqQSH7OZfUrX55TEK-5" value="&lt;font style=&quot;font-size: 16px;&quot;&gt;Name&lt;/font&gt;" style="text;html=1;align=center;verticalAlign=middle;whiteSpace=wrap;rounded=0;" vertex="1" parent="0coull1I_P3dmNZWmFLt-1">
          <mxGeometry x="370" y="-1980" width="60" height="30" as="geometry" />
        </mxCell>
        <mxCell id="UAWaqQSH7OZfUrX55TEK-6" value="&lt;font style=&quot;font-size: 16px;&quot;&gt;Last Name&lt;/font&gt;" style="text;html=1;align=center;verticalAlign=middle;whiteSpace=wrap;rounded=0;" vertex="1" parent="0coull1I_P3dmNZWmFLt-1">
          <mxGeometry x="370" y="-1910" width="90" height="30" as="geometry" />
        </mxCell>
        <mxCell id="UAWaqQSH7OZfUrX55TEK-7" value="&lt;font style=&quot;font-size: 16px;&quot;&gt;Date of Birth&lt;/font&gt;" style="text;html=1;align=left;verticalAlign=middle;whiteSpace=wrap;rounded=0;" vertex="1" parent="0coull1I_P3dmNZWmFLt-1">
          <mxGeometry x="370" y="-1842.5" width="150" height="30" as="geometry" />
        </mxCell>
        <mxCell id="UAWaqQSH7OZfUrX55TEK-8" value="&lt;font style=&quot;font-size: 16px;&quot;&gt;Username&lt;/font&gt;" style="text;html=1;align=center;verticalAlign=middle;whiteSpace=wrap;rounded=0;" vertex="1" parent="0coull1I_P3dmNZWmFLt-1">
          <mxGeometry x="370" y="-1772.5" width="90" height="30" as="geometry" />
        </mxCell>
        <mxCell id="UAWaqQSH7OZfUrX55TEK-9" value="" style="rounded=1;whiteSpace=wrap;html=1;" vertex="1" parent="0coull1I_P3dmNZWmFLt-1">
          <mxGeometry x="370" y="-1670" width="220" height="40" as="geometry" />
        </mxCell>
        <mxCell id="UAWaqQSH7OZfUrX55TEK-10" value="&lt;font style=&quot;font-size: 16px;&quot;&gt;Password&lt;/font&gt;" style="text;html=1;align=center;verticalAlign=middle;whiteSpace=wrap;rounded=0;" vertex="1" parent="0coull1I_P3dmNZWmFLt-1">
          <mxGeometry x="370" y="-1700" width="90" height="30" as="geometry" />
        </mxCell>
      </root>
    </mxGraphModel>
  </diagram>
</mxfile>
